<?xml version="1.0" encoding="UTF-8"?>
<svg version="1.1" xmlns="http://www.w3.org/2000/svg" width="1200" height="1200">
<path d="M0 0 C1.4735499 -0.00343836 2.94709722 -0.00818842 4.42063919 -0.01412097 C8.46087879 -0.02659702 12.50090646 -0.02049582 16.5411469 -0.01128729 C20.94010284 -0.00456731 25.33902277 -0.01524872 29.73797101 -0.02368313 C37.44485961 -0.03605088 45.15168732 -0.03726199 52.8585825 -0.0311327 C64.31915857 -0.02204246 75.77967833 -0.03007303 87.24025008 -0.04142394 C107.70963261 -0.06109683 128.17898982 -0.06343705 148.64837955 -0.05822874 C166.56329419 -0.05367262 184.47819881 -0.05426942 202.39311314 -0.06006908 C204.79564121 -0.06082595 207.19816929 -0.06158193 209.60069736 -0.06233703 C213.22104006 -0.06348222 216.84138275 -0.06463209 220.46172543 -0.06579627 C254.12362126 -0.07650243 287.78551374 -0.08122535 321.44741058 -0.07332611 C323.35105718 -0.07288035 323.35105718 -0.07288035 325.29316128 -0.07242559 C335.59930367 -0.06997662 345.90544603 -0.06736505 356.21158838 -0.06474145 C396.41239481 -0.05463909 436.61315947 -0.06299377 476.81396008 -0.086236 C521.97634089 -0.11230451 567.13869656 -0.1251576 612.30108517 -0.11804825 C617.11604257 -0.11733218 621.93099997 -0.1166578 626.74595737 -0.1160078 C628.52431363 -0.11575309 628.52431363 -0.11575309 630.33859627 -0.11549323 C648.24005979 -0.11318965 666.14149997 -0.1211701 684.04295826 -0.13429928 C704.40056929 -0.14920318 724.7581256 -0.15006352 745.11573545 -0.13222837 C756.50842846 -0.12265834 767.90099388 -0.12411461 779.29367841 -0.14146306 C786.90521228 -0.15194431 794.51664887 -0.1478637 802.12817315 -0.13198302 C806.46392519 -0.12334306 810.79942704 -0.12094651 815.13516632 -0.13625234 C819.08567752 -0.15006646 823.03572514 -0.14521484 826.98620959 -0.12596715 C828.40049679 -0.12225557 829.81482204 -0.12512118 831.22907469 -0.13568023 C843.83992329 -0.22328759 855.38701312 2.30529678 866.5827589 8.19281673 C867.25371593 8.53828548 867.92467297 8.88375423 868.61596203 9.23969173 C873.98379214 12.07689913 878.76479905 15.29102385 883.2702589 19.38031673 C884.29506359 20.28523861 884.29506359 20.28523861 885.3405714 21.20844173 C894.72131988 29.98283005 901.9082649 41.49794083 902.57428646 54.56183434 C902.89120731 68.1670004 900.72045133 80.83508111 897.96264172 94.11298275 C897.49770066 96.42378141 897.03446912 98.73492458 896.57279491 101.04637814 C895.32278441 107.2798232 894.0491044 113.50821323 892.77091217 119.73593163 C891.55884521 125.66047418 890.36494889 131.58864859 889.17073008 137.51680958 C886.79378862 149.31303736 884.39961283 161.10569668 881.99438 172.89618587 C879.69071926 184.18895763 877.39500624 195.48329353 875.11059093 206.77997494 C874.97101299 207.4701886 874.83143504 208.16040226 874.68762746 208.87153149 C873.98557617 212.34343035 873.28368043 215.81536063 872.58184958 219.28730404 C869.09638063 236.52893354 865.60596357 253.76955774 862.1006422 271.00716305 C861.85332922 272.22361265 861.60601624 273.44006226 861.35120893 274.69337398 C860.12838425 280.70546996 858.90291231 286.71700854 857.67271328 292.7276001 C855.37891816 303.94501017 853.10661767 315.16567064 850.90546632 326.40160972 C849.98405498 331.10418042 849.05245702 335.80471874 848.11874942 340.50486181 C847.4858507 343.69487224 846.86041679 346.88606471 846.24561644 350.07961857 C841.1535629 376.5158533 833.941461 405.54776312 810.63354015 422.05219173 C801.9429119 427.87754208 801.9429119 427.87754208 797.70431042 429.15160275 C795.08138507 430.17851373 795.08138507 430.17851373 794.03274059 432.75734615 C793.74518902 433.75545818 793.45763744 434.75357021 793.16137218 435.78192806 C792.82397015 436.91524059 792.48656811 438.04855312 792.13894176 439.21620846 C791.79297955 440.4524345 791.44701733 441.68866055 791.0905714 442.96234798 C790.71280134 444.25494669 790.33311722 445.54698737 789.95162487 446.83849239 C788.94701856 450.25649256 787.96617507 453.68085541 786.99083996 457.10730648 C786.01916926 460.50974714 785.02977119 463.90699449 784.03979015 467.30414486 C783.84684714 467.96624745 783.65390413 468.62835005 783.45511436 469.31051636 C783.06784435 470.63886091 782.68040778 471.96715691 782.29280186 473.29540348 C781.9080613 474.61475968 781.52392731 475.93429292 781.14040089 477.25400257 C778.69141172 485.67905463 776.16847511 494.0725254 773.41479015 502.40375423 C773.14486248 503.22829601 772.87493481 504.05283779 772.59682751 504.90236568 C768.64291006 516.63277432 762.36393902 527.90395011 751.0202589 533.81781673 C745.62000926 536.30594829 740.63095005 536.52525971 734.73740673 536.51453781 C733.42654261 536.51806616 733.42654261 536.51806616 732.08919638 536.52166578 C729.14034224 536.52835978 726.19153212 536.52789744 723.24267101 536.52748775 C721.11524863 536.53078613 718.98782688 536.53451165 716.86040592 536.53862923 C710.99799609 536.54866038 705.13559649 536.55236782 699.27317929 536.55501854 C692.95666489 536.55891831 686.64015862 536.5684969 680.32364941 536.57723141 C665.78231816 536.59607067 651.2409879 536.60625351 636.69964749 536.61469209 C629.51333311 536.61889864 622.32701956 536.62412065 615.14070588 536.62937662 C590.53986952 536.64726774 565.93903293 536.66226329 541.33819103 536.66969681 C539.79364983 536.67017156 538.24910863 536.67064745 536.70456743 536.67112447 C535.55563856 536.67147903 535.55563856 536.67147903 534.383499 536.67184076 C530.5028161 536.67304196 526.6221332 536.67425741 522.74145031 536.67548275 C521.58625078 536.67584297 521.58625078 536.67584297 520.40771389 536.67621048 C495.4428652 536.68410193 470.47806405 536.70753011 445.51323612 536.74003869 C419.11771481 536.77434751 392.7222213 536.79404896 366.32667732 536.79734105 C363.42816129 536.79775858 360.52964528 536.79823815 357.63112926 536.79876423 C356.91743554 536.79888742 356.20374182 536.79901061 355.46842102 536.79913754 C343.9894063 536.80146834 332.51044683 536.81712173 321.0314518 536.83760608 C309.48909082 536.85787641 297.94682068 536.86300264 286.40444058 536.85383544 C280.15288569 536.84928642 273.90150998 536.8512123 267.64997959 536.87059689 C261.9242004 536.88819786 256.1987315 536.8872554 250.47294915 536.87169959 C248.40422448 536.86931889 246.33547851 536.87367096 244.26678646 536.88552824 C228.38365859 536.97090985 215.52073953 535.60167783 203.2702589 524.38031673 C197.84976382 517.96045181 194.93543319 511.65440113 195.01104259 503.14630795 C195.55291765 497.36418087 197.45068164 491.86677791 199.1374464 486.33344173 C199.53722304 484.99094636 199.93597837 483.64814647 200.33376598 482.30506039 C201.37746967 478.79218061 202.43616479 475.28399172 203.49779797 471.77649593 C204.36110281 468.91484545 205.21344477 466.04998603 206.06527042 463.18490124 C207.08556366 459.75412069 208.1108545 456.32484211 209.1374464 452.89594173 C209.33142891 452.24745518 209.52541142 451.59896862 209.72527218 450.93083096 C210.27780387 449.08799622 210.83425534 447.24633812 211.39086437 445.4047308 C211.70619122 444.35932125 212.02151806 443.31391171 212.34640026 442.23682308 C213.21192363 439.56068532 214.21297664 436.9851714 215.2702589 434.38031673 C214.39383889 434.3814559 214.39383889 434.3814559 213.49971342 434.38261807 C178.81929821 434.42743901 144.13888882 434.46172253 109.45845076 434.48244739 C105.28813546 434.48494861 101.11782021 434.48753727 96.947505 434.49018002 C96.11732044 434.49070464 95.28713589 434.49122926 94.43179423 434.49176978 C81.01485193 434.5004566 67.59792689 434.51621703 54.18099481 434.53462233 C40.39928739 434.55336941 26.61758896 434.5644436 12.83586931 434.56849372 C4.34165639 434.57122883 -4.15250774 434.57984652 -12.64670563 434.59614967 C-18.48283936 434.60677599 -24.31894812 434.60990467 -30.15509081 434.60731949 C-33.51501727 434.60604692 -36.87479095 434.60902208 -40.23471355 434.61872768 C-67.52243805 434.69364845 -92.31281999 433.47797735 -113.7297411 414.38031673 C-114.44001453 413.7525433 -115.15028797 413.12476986 -115.88208485 412.47797298 C-125.78813322 403.18035752 -132.58838056 391.31678477 -133.22643757 377.57394695 C-133.51552441 361.13471861 -129.57587417 345.15371918 -126.2486043 329.14882207 C-125.30854868 324.60479296 -124.39155484 320.05610659 -123.47183704 315.50792599 C-121.89753088 307.73795735 -120.30966509 299.97086927 -118.71173573 292.20572567 C-116.21692595 280.08202033 -113.74643978 267.9534313 -111.28003407 255.82392025 C-110.45264399 251.75621596 -109.62507093 247.68854892 -108.79739857 243.62090206 C-108.59274223 242.61502546 -108.3880859 241.60914887 -108.17722785 240.57279116 C-106.72951877 233.45931327 -105.2777711 226.34666649 -103.82443714 219.2343359 C-99.02141645 195.72246371 -94.27887045 172.19992011 -89.63461304 148.65616941 C-89.0703926 145.79708003 -88.50511907 142.93819938 -87.9397738 140.07933223 C-84.65054084 123.44669385 -84.65054084 123.44669385 -81.38623524 106.80914974 C-80.24493168 100.96950801 -79.09292227 95.13207782 -77.93296909 89.29611301 C-77.52203037 87.21780187 -77.11513838 85.13868496 -76.71300602 83.05865192 C-71.47065732 55.95654465 -63.42460557 28.7874463 -40.54614735 11.27875423 C-27.67028384 2.59960075 -15.33980183 -0.0797295 0 0 Z M-26.7297411 50.38031673 C-33.24306973 60.58695428 -35.66680371 71.20943784 -37.88989735 82.94672298 C-38.26735572 84.85338385 -38.64672788 86.75966662 -39.02779102 88.66561031 C-39.86107515 92.85347357 -40.68156543 97.04357449 -41.49237537 101.23584652 C-42.81980706 108.09878288 -44.1731384 114.95645214 -45.53101063 121.8134222 C-46.02258517 124.29705322 -46.5140998 126.78069609 -47.00555897 129.26434994 C-47.38449425 131.17933285 -47.38449425 131.17933285 -47.77108479 133.13300228 C-48.43459403 136.4888425 -49.09553403 139.84518364 -49.75571537 143.20167994 C-54.52028495 167.42415036 -59.40660859 191.62129164 -64.31673717 215.81463337 C-65.62354003 222.25427372 -66.92819858 228.69434718 -68.2322588 235.13454342 C-68.44811093 236.20049325 -68.66396307 237.26644308 -68.88635617 238.36469442 C-69.76058552 242.6821022 -70.63474452 246.99952421 -71.50877678 251.3169719 C-73.9155652 263.20555637 -76.32509945 275.09356796 -78.74271107 286.97995663 C-80.64200189 296.3186763 -82.53349673 305.65893794 -84.4157818 315.0011006 C-85.39237717 319.8468525 -86.37259908 324.69179998 -87.3622427 329.53490543 C-88.28015474 334.02728023 -89.18807252 338.52155913 -90.0883702 343.01749599 C-90.41708546 344.65002023 -90.74939382 346.2818261 -91.08571255 347.91280091 C-94.86858232 364.88133392 -94.86858232 364.88133392 -90.3391161 381.09125423 C-85.25477945 388.32285927 -78.00558294 392.9197891 -69.4191764 394.9180364 C-66.72615504 395.38093313 -64.25335029 395.5045279 -61.522995 395.50336456 C-59.97188468 395.50635114 -59.97188468 395.50635114 -58.38943881 395.50939804 C-56.69537692 395.50502878 -56.69537692 395.50502878 -54.96709156 395.50057125 C-53.15983678 395.50185289 -53.15983678 395.50185289 -51.31607181 395.50316042 C-47.97528399 395.50452271 -44.63455475 395.50139752 -41.29377401 395.49638236 C-37.68987459 395.49206396 -34.08597697 395.49352527 -30.48207569 395.49428463 C-24.23920927 395.49480898 -17.99635329 395.49167142 -11.75348949 395.48604679 C-2.72735647 395.47791981 6.29877151 395.47531534 15.3249078 395.4740588 C29.96921064 395.47187017 44.61350791 395.46521519 59.25780773 395.45575619 C73.48339339 395.4465772 87.70897753 395.43949874 101.93456554 395.43524837 C102.81142863 395.43498565 103.68829171 395.43472293 104.5917264 395.43445224 C108.99069017 395.43314721 113.38965395 395.4318835 117.78861773 395.43064034 C154.28250205 395.4202736 190.77638005 395.40266041 227.2702589 395.38031673 C227.47799938 394.66416195 227.68573986 393.94800716 227.89977551 393.21015072 C229.88337544 386.38228567 231.88195632 379.55901665 233.89648724 372.74022579 C234.93108592 369.2364604 235.96029575 365.73131634 236.97631359 362.22211361 C250.29195124 316.27518129 250.29195124 316.27518129 266.41479015 306.60687923 C273.16082648 303.70912902 280.013804 303.08546601 287.28338051 303.12863445 C288.58100421 303.12427413 288.58100421 303.12427413 289.90484253 303.11982572 C292.79360112 303.11254699 295.6821459 303.11945918 298.57090282 303.12634945 C300.66694308 303.12404418 302.76298253 303.12086721 304.85902029 303.11689496 C310.61140151 303.10854742 316.36371635 303.1126721 322.11609781 303.1188674 C328.32273742 303.12339105 334.52936558 303.11640853 340.73600292 303.11090755 C352.18970447 303.10252497 363.64337645 303.10325596 375.09707785 303.10873049 C385.67913028 303.1137635 396.26117496 303.11507412 406.84322834 303.1126852 C407.5454226 303.11253243 408.24761686 303.11237966 408.97108973 303.11222226 C411.82160474 303.11159958 414.67211973 303.11096277 417.52263473 303.11030274 C444.2585575 303.10418581 470.99446681 303.10972984 497.73038751 303.12049653 C521.47667672 303.12998658 545.22294449 303.12913923 568.96923351 303.11957455 C595.65504761 303.10886177 622.3408498 303.10462068 649.02666575 303.11079907 C651.8722684 303.1114405 654.71787105 303.11206618 657.5634737 303.1126852 C658.26412141 303.11284336 658.96476912 303.11300151 659.68664858 303.11316446 C670.26060795 303.11543805 680.83455871 303.11278135 691.40851688 303.1077261 C703.43406114 303.10200549 715.45957454 303.103634 727.48511785 303.11428759 C733.62096623 303.11954422 739.75677107 303.12160113 745.89261913 303.11498928 C751.51008093 303.10902759 757.12745885 303.1123087 762.74491305 303.12294438 C764.7764362 303.12517747 766.80796645 303.12404418 768.83948504 303.11919281 C771.6035224 303.11309877 774.36727362 303.11936226 777.13129616 303.12863445 C778.31054324 303.12161095 778.31054324 303.12161095 779.51361349 303.11444557 C787.625703 303.1687222 795.29290802 304.44417269 802.5202589 308.25531673 C803.47416515 308.74773861 804.4280714 309.24016048 805.4108839 309.74750423 C808.46496407 311.49150083 811.35299129 313.41780043 814.2702589 315.38031673 C819.6256846 288.73461626 824.98091879 262.08887729 830.33593369 235.44309425 C832.82314952 223.06708877 835.31042473 210.69109522 837.79784679 198.31513119 C839.96944013 187.51054624 842.14091485 176.70593745 844.31225532 165.90130168 C845.45872666 160.19645654 846.60525183 154.49162223 847.75191975 148.7868166 C847.97127853 147.69541703 848.19063731 146.60401746 848.41664332 145.47954518 C848.8520674 143.3132834 849.28756134 141.14703566 849.72312766 138.98080248 C850.76266372 133.80996119 851.80073979 128.63883636 852.83530045 123.46699715 C854.50455959 115.12733567 856.17736306 106.78900609 857.91284114 98.46282953 C858.5874881 95.2238268 859.25479009 91.983331 859.92152488 88.74269164 C860.22526593 87.27777606 860.53281828 85.81364403 860.84471524 84.35044324 C864.41014467 68.10644562 864.41014467 68.10644562 859.8796339 52.66937923 C854.79898395 45.44301789 847.57588577 40.88008003 839.0106719 38.84288473 C836.03798356 38.34110982 833.26273659 38.25414509 830.24786973 38.25266623 C829.02913517 38.24965027 827.81040061 38.2466343 826.55473471 38.24352694 C825.20285595 38.24522586 823.85097731 38.2470166 822.49909878 38.24888897 C821.05661314 38.24723914 819.61412794 38.24515278 818.1716435 38.24266887 C814.18977251 38.23709494 810.20792301 38.23777596 806.22604937 38.23944646 C801.90081231 38.2401765 797.57558136 38.2351571 793.2503469 38.23087144 C784.66375335 38.22328408 776.07716601 38.22109801 767.49056946 38.22054238 C757.20898266 38.21962948 746.92740163 38.21296416 736.64581731 38.20619556 C711.79486931 38.1901263 686.94392192 38.18423143 662.09296966 38.17944681 C650.3410464 38.17711201 638.58912362 38.1735095 626.83720073 38.16975143 C586.62283643 38.15691573 546.40847241 38.14619606 506.1941061 38.14274883 C503.66913213 38.1425272 501.14415815 38.14230541 498.61918418 38.14208348 C496.08805644 38.14186284 493.55692869 38.14164236 491.02580094 38.14142203 C485.94778172 38.14097948 480.8697625 38.14053236 475.79174328 38.14008236 C473.90315932 38.13991827 473.90315932 38.13991827 471.97642216 38.13975087 C431.13721008 38.13611898 390.29801574 38.12019406 349.45881045 38.096892 C306.2983786 38.07231043 263.1379569 38.05857679 219.97751784 38.05738091 C215.24203698 38.05720946 210.50655611 38.05699402 205.77107525 38.05674648 C204.60503555 38.05669071 203.43899586 38.05663495 202.23762162 38.05657749 C183.45238735 38.05542564 164.66717124 38.04439243 145.8819431 38.02985943 C127.01025611 38.01551168 108.13859247 38.01224771 89.26690152 38.0202994 C78.04872589 38.02476364 66.83062551 38.02086336 55.61245973 38.0050609 C48.12342996 37.99533582 40.6344531 37.99646543 33.14542385 38.00649713 C28.87545897 38.01190701 24.60563895 38.01254205 20.33568588 37.99998841 C16.45068832 37.98866159 12.56595369 37.99116041 8.6809653 38.00465548 C7.28474452 38.00708981 5.88850357 38.00450427 4.49230501 37.996259 C-9.05447618 37.92152178 -17.57387463 40.00013511 -26.7297411 50.38031673 Z " fill="#1B1B1A" transform="translate(244.72974109649658,389.61968326568604)"/>
<path d="M0 0 C1.4735499 -0.00343836 2.94709722 -0.00818842 4.42063919 -0.01412097 C8.46087879 -0.02659702 12.50090646 -0.02049582 16.5411469 -0.01128729 C20.94010284 -0.00456731 25.33902277 -0.01524872 29.73797101 -0.02368313 C37.44485961 -0.03605088 45.15168732 -0.03726199 52.8585825 -0.0311327 C64.31915857 -0.02204246 75.77967833 -0.03007303 87.24025008 -0.04142394 C107.70963261 -0.06109683 128.17898982 -0.06343705 148.64837955 -0.05822874 C166.56329419 -0.05367262 184.47819881 -0.05426942 202.39311314 -0.06006908 C204.79564121 -0.06082595 207.19816929 -0.06158193 209.60069736 -0.06233703 C213.22104006 -0.06348222 216.84138275 -0.06463209 220.46172543 -0.06579627 C254.12362126 -0.07650243 287.78551374 -0.08122535 321.44741058 -0.07332611 C323.35105718 -0.07288035 323.35105718 -0.07288035 325.29316128 -0.07242559 C335.59930367 -0.06997662 345.90544603 -0.06736505 356.21158838 -0.06474145 C396.41239481 -0.05463909 436.61315947 -0.06299377 476.81396008 -0.086236 C521.97634089 -0.11230451 567.13869656 -0.1251576 612.30108517 -0.11804825 C617.11604257 -0.11733218 621.93099997 -0.1166578 626.74595737 -0.1160078 C628.52431363 -0.11575309 628.52431363 -0.11575309 630.33859627 -0.11549323 C648.24005979 -0.11318965 666.14149997 -0.1211701 684.04295826 -0.13429928 C704.40056929 -0.14920318 724.7581256 -0.15006352 745.11573545 -0.13222837 C756.50842846 -0.12265834 767.90099388 -0.12411461 779.29367841 -0.14146306 C786.90521228 -0.15194431 794.51664887 -0.1478637 802.12817315 -0.13198302 C806.46392519 -0.12334306 810.79942704 -0.12094651 815.13516632 -0.13625234 C819.08567752 -0.15006646 823.03572514 -0.14521484 826.98620959 -0.12596715 C828.40049679 -0.12225557 829.81482204 -0.12512118 831.22907469 -0.13568023 C843.83992329 -0.22328759 855.38701312 2.30529678 866.5827589 8.19281673 C867.25371593 8.53828548 867.92467297 8.88375423 868.61596203 9.23969173 C873.98379214 12.07689913 878.76479905 15.29102385 883.2702589 19.38031673 C884.29506359 20.28523861 884.29506359 20.28523861 885.3405714 21.20844173 C894.72131988 29.98283005 901.9082649 41.49794083 902.57428646 54.56183434 C902.89120731 68.1670004 900.72045133 80.83508111 897.96264172 94.11298275 C897.49770066 96.42378141 897.03446912 98.73492458 896.57279491 101.04637814 C895.32278441 107.2798232 894.0491044 113.50821323 892.77091217 119.73593163 C891.55884521 125.66047418 890.36494889 131.58864859 889.17073008 137.51680958 C886.79378862 149.31303736 884.39961283 161.10569668 881.99438 172.89618587 C879.69071926 184.18895763 877.39500624 195.48329353 875.11059093 206.77997494 C874.97101299 207.4701886 874.83143504 208.16040226 874.68762746 208.87153149 C873.98557617 212.34343035 873.28368043 215.81536063 872.58184958 219.28730404 C869.09638063 236.52893354 865.60596357 253.76955774 862.1006422 271.00716305 C861.85332922 272.22361265 861.60601624 273.44006226 861.35120893 274.69337398 C860.12838425 280.70546996 858.90291231 286.71700854 857.67271328 292.7276001 C855.37891816 303.94501017 853.10661767 315.16567064 850.90546632 326.40160972 C849.98405498 331.10418042 849.05245702 335.80471874 848.11874942 340.50486181 C847.4858507 343.69487224 846.86041679 346.88606471 846.24561644 350.07961857 C841.14036079 376.58439423 833.91848946 405.41879448 810.6686964 422.05219173 C805.42744352 425.5911515 800.398669 428.58166082 794.2702589 430.38031673 C795.04815855 424.39253653 796.81477338 418.71678284 798.5202589 412.94281673 C798.83672375 411.86314632 799.15318859 410.78347591 799.47924328 409.67108822 C801.1384557 404.0544186 802.86507373 398.48055498 804.7702589 392.94281673 C807.36238253 385.36191746 809.48382132 377.66426424 811.59862804 369.93817806 C812.9950846 364.85434102 814.4270653 359.7988489 816.0515089 354.78266048 C821.40595802 339.75649428 821.40595802 339.75649428 818.9108839 324.61469173 C817.33519913 322.0212413 817.33519913 322.0212413 815.5827589 319.79437923 C812.6637124 314.42541871 814.55139445 307.97946236 815.73498058 302.25289059 C815.89267815 301.46250533 816.05037572 300.67212006 816.212852 299.85778373 C816.74055042 297.22146454 817.27786318 294.58720061 817.81518078 291.9528265 C818.19686614 290.05624551 818.57795417 288.15954421 818.95849133 286.26273251 C819.99427252 281.10856574 821.03839353 275.95611972 822.08397007 270.80393243 C823.18486154 265.37171737 824.2779845 259.93793948 825.37194347 254.50432491 C827.45364151 244.17069594 829.54218337 233.83846271 831.63322783 223.50672144 C834.21072667 210.76978852 836.77960558 198.03112009 839.3483839 185.29242611 C842.18971093 171.20361096 845.03187549 157.1149685 847.88127184 143.02778274 C848.87506895 138.11381168 849.86742514 133.19956 850.85612774 128.28456116 C852.56831631 119.77670422 854.28747938 111.27077592 856.05339098 102.7738803 C856.81712354 99.09352029 857.57282367 95.41153458 858.32748032 91.72930419 C858.68026666 90.01873983 859.03683989 88.30895111 859.39761543 86.60005391 C863.42030729 69.27991464 863.42030729 69.27991464 858.95385265 52.67328548 C853.48436382 45.22412088 845.27685726 40.85486753 836.2702589 39.38031673 C834.26432181 39.29123902 832.25578344 39.25365116 830.24786973 39.25266623 C829.02913517 39.24965027 827.81040061 39.2466343 826.55473471 39.24352694 C825.20285595 39.24522586 823.85097731 39.2470166 822.49909878 39.24888897 C821.05661314 39.24723914 819.61412794 39.24515278 818.1716435 39.24266887 C814.18977251 39.23709494 810.20792301 39.23777596 806.22604937 39.23944646 C801.90081231 39.2401765 797.57558136 39.2351571 793.2503469 39.23087144 C784.66375335 39.22328408 776.07716601 39.22109801 767.49056946 39.22054238 C757.20898266 39.21962948 746.92740163 39.21296416 736.64581731 39.20619556 C711.79486931 39.1901263 686.94392192 39.18423143 662.09296966 39.17944681 C650.3410464 39.17711201 638.58912362 39.1735095 626.83720073 39.16975143 C586.62283643 39.15691573 546.40847241 39.14619606 506.1941061 39.14274883 C503.66913213 39.1425272 501.14415815 39.14230541 498.61918418 39.14208348 C496.08805644 39.14186284 493.55692869 39.14164236 491.02580094 39.14142203 C485.94778172 39.14097948 480.8697625 39.14053236 475.79174328 39.14008236 C473.90315932 39.13991827 473.90315932 39.13991827 471.97642216 39.13975087 C431.13721008 39.13611898 390.29801574 39.12019406 349.45881045 39.096892 C306.2983786 39.07231043 263.1379569 39.05857679 219.97751784 39.05738091 C215.24203698 39.05720946 210.50655611 39.05699402 205.77107525 39.05674648 C204.60503555 39.05669071 203.43899586 39.05663495 202.23762162 39.05657749 C183.45238735 39.05542564 164.66717124 39.04439243 145.8819431 39.02985943 C127.01025611 39.01551168 108.13859247 39.01224771 89.26690152 39.0202994 C78.04872589 39.02476364 66.83062551 39.02086336 55.61245973 39.0050609 C48.12342996 38.99533582 40.6344531 38.99646543 33.14542385 39.00649713 C28.87545897 39.01190701 24.60563895 39.01254205 20.33568588 38.99998841 C16.45068832 38.98866159 12.56595369 38.99116041 8.6809653 39.00465548 C7.28474452 39.00708981 5.88850357 39.00450427 4.49230501 38.996259 C-6.48874146 38.93567687 -15.37516948 39.78120618 -23.44911671 47.76338863 C-32.12381425 57.71726788 -34.51019613 70.38259551 -36.88989735 82.94672298 C-37.26735572 84.85338385 -37.64672788 86.75966662 -38.02779102 88.66561031 C-38.86107515 92.85347357 -39.68156543 97.04357449 -40.49237537 101.23584652 C-41.81980706 108.09878288 -43.1731384 114.95645214 -44.53101063 121.8134222 C-45.02258517 124.29705322 -45.5140998 126.78069609 -46.00555897 129.26434994 C-46.25818249 130.54100521 -46.51080601 131.81766048 -46.77108479 133.13300228 C-47.43459403 136.4888425 -48.09553403 139.84518364 -48.75571537 143.20167994 C-53.52028495 167.42415036 -58.40660859 191.62129164 -63.31673717 215.81463337 C-64.62354003 222.25427372 -65.92819858 228.69434718 -67.2322588 235.13454342 C-67.44811093 236.20049325 -67.66396307 237.26644308 -67.88635617 238.36469442 C-68.76058552 242.6821022 -69.63474452 246.99952421 -70.50877678 251.3169719 C-72.9155652 263.20555637 -75.32509945 275.09356796 -77.74271107 286.97995663 C-79.64200189 296.3186763 -81.53349673 305.65893794 -83.4157818 315.0011006 C-84.39237717 319.8468525 -85.37259908 324.69179998 -86.3622427 329.53490543 C-87.28015474 334.02728023 -88.18807252 338.52155913 -89.0883702 343.01749599 C-89.41708546 344.65002023 -89.74939382 346.2818261 -90.08571255 347.91280091 C-93.86364748 364.92170469 -93.86364748 364.92170469 -89.27270985 381.15766048 C-84.52907038 387.99090316 -77.46966862 392.04274657 -69.41697913 393.91925758 C-66.72810072 394.38059818 -64.24911551 394.51085119 -61.522995 394.51898193 C-59.97188468 394.5271936 -59.97188468 394.5271936 -58.38943881 394.53557116 C-57.26006422 394.53654926 -56.13068962 394.53752737 -54.96709156 394.53853512 C-53.15983678 394.54594208 -53.15983678 394.54594208 -51.31607181 394.55349869 C-47.97529683 394.56620098 -44.63456346 394.574492 -41.29377401 394.58092535 C-37.68986249 394.58893858 -34.08597203 394.60263318 -30.48207569 394.61563778 C-24.23922035 394.63738741 -17.99636286 394.65553744 -11.75348949 394.67124271 C-2.72734267 394.69395511 6.2987808 394.72209605 15.3249078 394.75156199 C29.96919747 394.79922109 44.61349668 394.84248984 59.25780773 394.88300228 C73.48340123 394.92236576 87.70898624 394.96379404 101.93456554 395.00800228 C103.24986017 395.01208869 103.24986017 395.01208869 104.5917264 395.01625765 C108.99069028 395.02993727 113.38965404 395.04365752 117.78861773 395.05739796 C154.2824805 395.17133632 190.77636137 395.27815152 227.2702589 395.38031673 C226.79034537 397.3048519 226.31010349 399.2293052 225.8297224 401.15372372 C225.56232282 402.22541239 225.29492323 403.29710106 225.01942062 404.40126514 C223.66376187 409.79206029 222.19048525 415.14836994 220.7077589 420.50531673 C220.40418468 421.62680111 220.10061047 422.74828548 219.78783703 423.90375423 C219.49199718 424.97109798 219.19615734 426.03844173 218.89135265 427.13812923 C218.62765881 428.09864193 218.36396496 429.05915462 218.09228039 430.04877377 C217.2702589 432.38031673 217.2702589 432.38031673 215.2702589 434.38031673 C213.25131643 434.63101506 213.25131643 434.63101506 210.71160984 434.63199902 C209.74562756 434.63721451 208.77964528 434.64243001 207.78439081 434.64780354 C206.71555583 434.6433421 205.64672086 434.63888066 204.54549694 434.63428402 C203.41576604 434.637404 202.28603513 434.64052398 201.12206995 434.64373851 C197.30992339 434.65176004 193.49793419 434.64537844 189.68578625 434.6391058 C186.96271463 434.64071311 184.23964984 434.64530144 181.51658154 434.64972591 C174.86861809 434.65864125 168.2206997 434.65668725 161.57273446 434.65090063 C156.1633995 434.64638723 150.75407717 434.64576987 145.34474087 434.64794827 C144.19058801 434.64840796 144.19058801 434.64840796 143.01311893 434.64887695 C141.44993069 434.64951641 139.88674246 434.65016484 138.32355423 434.65082213 C123.64380735 434.65653306 108.96408539 434.64995838 94.2843426 434.6392214 C81.71257818 434.63031007 69.14085076 434.63181642 56.56908703 434.64105892 C41.96422804 434.65179113 27.35939103 434.65595746 12.75452864 434.64983439 C11.19275165 434.64919733 9.63097465 434.64856859 8.06919765 434.64794827 C7.30085226 434.64763971 6.53250687 434.64733116 5.74087828 434.64701326 C0.35073737 434.64529329 -5.03938951 434.64818685 -10.42952824 434.65290737 C-17.01774221 434.65855013 -23.6059086 434.65693011 -30.1941172 434.64634588 C-33.54999967 434.64113057 -36.90573851 434.64005794 -40.26163006 434.64564419 C-67.53516638 434.68683358 -92.32475675 433.46733323 -113.7297411 414.38031673 C-114.44001453 413.7525433 -115.15028797 413.12476986 -115.88208485 412.47797298 C-125.78813322 403.18035752 -132.58838056 391.31678477 -133.22643757 377.57394695 C-133.51552441 361.13471861 -129.57587417 345.15371918 -126.2486043 329.14882207 C-125.30854868 324.60479296 -124.39155484 320.05610659 -123.47183704 315.50792599 C-121.89753088 307.73795735 -120.30966509 299.97086927 -118.71173573 292.20572567 C-116.21692595 280.08202033 -113.74643978 267.9534313 -111.28003407 255.82392025 C-110.45264399 251.75621596 -109.62507093 247.68854892 -108.79739857 243.62090206 C-108.59274223 242.61502546 -108.3880859 241.60914887 -108.17722785 240.57279116 C-106.72951877 233.45931327 -105.2777711 226.34666649 -103.82443714 219.2343359 C-99.02141645 195.72246371 -94.27887045 172.19992011 -89.63461304 148.65616941 C-89.0703926 145.79708003 -88.50511907 142.93819938 -87.9397738 140.07933223 C-84.65054084 123.44669385 -84.65054084 123.44669385 -81.38623524 106.80914974 C-80.24493168 100.96950801 -79.09292227 95.13207782 -77.93296909 89.29611301 C-77.52203037 87.21780187 -77.11513838 85.13868496 -76.71300602 83.05865192 C-71.47065732 55.95654465 -63.42460557 28.7874463 -40.54614735 11.27875423 C-27.67028384 2.59960075 -15.33980183 -0.0797295 0 0 Z " fill="#E42825" transform="translate(244.72974109649658,389.61968326568604)"/>
<path d="M0 0 C4.60021745 4.32047449 7.49506808 7.8050846 8.046875 14.31640625 C7.73912664 25.64154604 -2.26855783 33.8779808 -9.93115234 41.22607422 C-12.6374027 43.76343289 -15.37925437 46.25987521 -18.12890625 48.75 C-22.67043834 52.87904818 -26.9699109 57.2459203 -31.265625 61.62890625 C-34.76167527 60.1924856 -36.34585006 58.50121023 -38.515625 55.44140625 C-46.5750418 44.73561378 -57.16187432 37.61720061 -70.265625 34.62890625 C-81.90585034 33.22356197 -92.57754033 35.73345482 -102.203125 42.44140625 C-114.2874482 52.00743344 -121.24074522 65.30549171 -123.265625 80.62890625 C-124.36360981 94.3614486 -122.22353639 106.27874845 -114.265625 117.62890625 C-113.688125 118.53640625 -113.110625 119.44390625 -112.515625 120.37890625 C-105.62182669 127.27270456 -96.88014284 130.90040873 -87.203125 131.00390625 C-69.31512674 130.88066217 -52.07381184 121.22188583 -39.5 108.8984375 C-39.09265625 108.47949219 -38.6853125 108.06054688 -38.265625 107.62890625 C-34.11174202 109.18782271 -31.79643945 112.2261046 -29.078125 115.56640625 C-28.59472656 116.1490625 -28.11132812 116.73171875 -27.61328125 117.33203125 C-26.156537 119.09162497 -24.70967864 120.85889027 -23.265625 122.62890625 C-22.49605469 123.56863281 -21.72648437 124.50835938 -20.93359375 125.4765625 C-19.4874074 127.24586075 -18.04469773 129.01800643 -16.60546875 130.79296875 C-14.87055293 132.89572148 -13.11754898 134.96842043 -11.33203125 137.02734375 C-10.83316406 137.60548828 -10.33429688 138.18363281 -9.8203125 138.77929688 C-8.85062184 139.90002573 -7.87563113 141.01619835 -6.89453125 142.12695312 C-4.29286678 145.1407999 -2.49211762 147.83028339 -1.265625 151.62890625 C-28.70025511 178.42416998 -63.98519444 193.14061005 -102.23876953 193.03295898 C-104.0949189 193.03867515 -105.95106476 193.04564418 -107.8072052 193.05375671 C-112.80034668 193.07155086 -117.79331117 193.07054771 -122.7864747 193.06481433 C-126.96460557 193.0617071 -131.14270317 193.06783082 -135.32082927 193.07385308 C-145.1712716 193.087847 -155.02162706 193.08637566 -164.87207031 193.07495117 C-175.02832065 193.06343233 -185.18430807 193.0776203 -195.34052384 193.10434765 C-204.07970445 193.12648304 -212.81880237 193.13314816 -221.55800903 193.12727123 C-226.76987836 193.12390044 -231.98157855 193.12632693 -237.19342422 193.14352226 C-242.08395697 193.15895834 -246.97409742 193.15507315 -251.86461449 193.13621712 C-253.65891506 193.13252419 -255.45324455 193.13566016 -257.24751854 193.14610291 C-259.69550697 193.15926448 -262.14218666 193.14781016 -264.59011841 193.13011169 C-265.30071163 193.1397167 -266.01130486 193.14932171 -266.74343121 193.15921777 C-271.51331606 193.08818847 -273.91141329 191.99424586 -277.265625 188.62890625 C-279.10110772 185.54195804 -279.26769501 183.74482681 -279.203125 180.12890625 C-278.0834244 175.94869068 -276.59775664 174.32634615 -273.265625 171.62890625 C-269.87890283 170.49999886 -267.2884715 170.48990542 -263.7167511 170.47068787 C-263.04856879 170.46574989 -262.38038648 170.46081191 -261.69195622 170.4557243 C-259.44869274 170.44034267 -257.20545789 170.4319869 -254.9621582 170.42358398 C-253.35582222 170.41400598 -251.74948876 170.40399595 -250.14315796 170.39358521 C-245.77778848 170.36652165 -241.41240818 170.34551993 -237.04700112 170.32558322 C-232.4865701 170.30373263 -227.9261725 170.2763394 -223.36576843 170.24952698 C-214.7279322 170.19958756 -206.09007742 170.15465336 -197.45220488 170.11150461 C-187.61916854 170.06214292 -177.78616574 170.00722083 -167.95316184 169.95182502 C-147.72401413 169.83798579 -127.49483441 169.73115097 -107.265625 169.62890625 C-107.265625 166.98890625 -107.265625 164.34890625 -107.265625 161.62890625 C-108.35149131 161.62532372 -108.35149131 161.62532372 -109.45929432 161.62166882 C-127.06047571 161.56257454 -144.66150952 161.48706044 -162.26253986 161.39319134 C-170.77421647 161.34819464 -179.28585088 161.308789 -187.79760742 161.2824707 C-195.21505544 161.2595219 -202.63237034 161.22615904 -210.04971284 161.18020469 C-213.97843201 161.15623017 -217.907019 161.13752922 -221.83580971 161.13129234 C-225.53192711 161.12526046 -229.2277061 161.10533015 -232.92369843 161.07463074 C-234.93053252 161.06161118 -236.93744556 161.06342562 -238.94432068 161.06562805 C-240.13484039 161.0530899 -241.32536011 161.04055176 -242.55195618 161.02763367 C-243.58897328 161.0230247 -244.62599039 161.01841574 -245.69443226 161.01366711 C-248.63785697 160.57320436 -249.50268256 159.97285625 -251.265625 157.62890625 C-252.51279063 154.95640848 -252.3413537 153.86987514 -251.45054626 151.0353241 C-248.87012611 148.19331363 -248.25957227 148.23442934 -244.56593323 148.00312805 C-242.52141868 147.976889 -240.47644128 147.97848557 -238.43188477 148.0012207 C-236.75837448 147.99031403 -236.75837448 147.99031403 -235.05105591 147.97918701 C-231.35272846 147.96054185 -227.65535978 147.9766844 -223.95703125 147.9921875 C-221.3925642 147.98415265 -218.82810381 147.97363762 -216.26365662 147.96073914 C-210.19458604 147.93505109 -204.12584848 147.93009984 -198.05673689 147.93651217 C-186.54749766 147.94809289 -175.03840724 147.91711259 -163.52924919 147.87615013 C-159.74457194 147.86727553 -155.96010726 147.87261263 -152.1754303 147.87971497 C-149.85987286 147.87633108 -147.54431592 147.87258199 -145.22875977 147.8684082 C-143.64439873 147.87695076 -143.64439873 147.87695076 -142.0280304 147.88566589 C-141.0592395 147.88172821 -140.09044861 147.87779053 -139.09230042 147.87373352 C-138.2518345 147.87469686 -137.41136858 147.87566019 -136.545434 147.87665272 C-133.98999485 147.59895357 -132.40367176 147.05221844 -130.265625 145.62890625 C-128.93229167 142.62890625 -128.93229167 142.62890625 -130.265625 139.62890625 C-133.25267571 138.1353809 -136.30952164 138.4860134 -139.58518982 138.49087524 C-140.34840626 138.48805396 -141.11162271 138.48523268 -141.89796692 138.48232591 C-144.46901608 138.47395739 -147.0400223 138.47263975 -149.61108398 138.47119141 C-151.44885378 138.46652492 -153.28662242 138.46138163 -155.12438965 138.45579529 C-159.08860097 138.44450173 -163.05280471 138.43607371 -167.0170269 138.42967606 C-173.28116043 138.41901601 -179.54523957 138.39877742 -185.80934143 138.3765564 C-203.62425248 138.31456211 -221.4391604 138.2605794 -239.25415039 138.22753906 C-249.0879987 138.20922049 -258.92175607 138.18032073 -268.75553757 138.13953435 C-273.96302422 138.11842013 -279.17039605 138.10300084 -284.37792778 138.10072708 C-289.27399544 138.09858682 -294.1698239 138.08278143 -299.06581879 138.05633736 C-300.86577347 138.04911945 -302.66575706 138.04705538 -304.46572304 138.05043983 C-306.91712708 138.05431391 -309.36775936 138.0399479 -311.81907654 138.02090454 C-312.53658111 138.02643424 -313.25408567 138.03196393 -313.9933328 138.03766119 C-316.86028375 137.99903591 -318.80841243 137.94368588 -321.20759678 136.29190636 C-322.8733064 133.67375759 -322.6428863 131.64699664 -322.265625 128.62890625 C-321.14073944 126.965065 -321.14073944 126.965065 -319.265625 125.62890625 C-316.42169952 125.25252533 -316.42169952 125.25252533 -312.88879395 125.25036621 C-312.23906254 125.24583608 -311.58933114 125.24130595 -310.91991091 125.23663855 C-308.73872236 125.22499382 -306.55814463 125.23466933 -304.37695312 125.24414062 C-302.81489159 125.24003649 -301.25283312 125.23457655 -299.69078064 125.2278595 C-296.32513104 125.21612279 -292.95964547 125.21365426 -289.59397888 125.21821594 C-284.27484736 125.22501295 -278.9559326 125.20917993 -273.63684082 125.18981934 C-261.38564494 125.14870343 -249.13445479 125.13741198 -236.8832016 125.12628937 C-225.65611824 125.1157909 -214.42913859 125.09905814 -203.20211935 125.05819368 C-197.91167765 125.03979955 -192.62148265 125.03595849 -187.33101654 125.04312897 C-184.04325757 125.04464747 -180.75562278 125.0338883 -177.46789742 125.0197506 C-175.94045542 125.01573742 -174.41299004 125.01689082 -172.88555717 125.02352333 C-170.80421792 125.03186858 -168.72374281 125.02195767 -166.64245605 125.00744629 C-164.89366779 125.00637753 -164.89366779 125.00637753 -163.10955048 125.00528717 C-160.26775217 124.85487704 -160.26775217 124.85487704 -158.35535431 123.26931 C-156.99953755 121.59095404 -156.99953755 121.59095404 -157.453125 119.00390625 C-158.01206734 116.46338622 -158.01206734 116.46338622 -160.265625 115.62890625 C-161.7919106 115.5311282 -163.32238406 115.49551642 -164.85179138 115.49087524 C-165.81783295 115.48542191 -166.78387451 115.47996857 -167.77919006 115.47434998 C-168.84262131 115.47330765 -169.90605255 115.47226532 -171.00170898 115.47119141 C-172.67740967 115.46357033 -172.67740967 115.46357033 -174.38696289 115.45579529 C-176.8189407 115.44507475 -179.25092848 115.43646121 -181.68292046 115.42967606 C-185.52752275 115.41792043 -189.37201101 115.39847717 -193.21656799 115.3765564 C-204.14962981 115.31482086 -215.08268008 115.26059397 -226.01586914 115.22753906 C-232.69667481 115.20725182 -239.37724545 115.17138519 -246.05793953 115.12678146 C-248.60927968 115.11257955 -251.16065651 115.10388964 -253.71203423 115.10072708 C-257.27496039 115.09584258 -260.83733214 115.07274809 -264.40014648 115.04541016 C-265.4615535 115.04841629 -266.52296051 115.05142242 -267.61653137 115.05451965 C-268.58539276 115.04342667 -269.55425415 115.03233368 -270.55247498 115.02090454 C-271.3951615 115.01759439 -272.23784803 115.01428425 -273.10607052 115.01087379 C-275.77726135 114.53841144 -276.66691732 113.79240647 -278.265625 111.62890625 C-278.64222359 108.61611757 -278.86529346 106.5867355 -277.22245789 103.96269226 C-274.20617848 101.90678279 -271.10357825 102.23680142 -267.58129883 102.28833008 C-266.41021324 102.28767296 -266.41021324 102.28767296 -265.21546936 102.28700256 C-262.63427747 102.28909301 -260.0537347 102.31243565 -257.47265625 102.3359375 C-255.68332779 102.34153256 -253.89399473 102.34580308 -252.10466003 102.34880066 C-247.39453448 102.36025657 -242.68468634 102.38973014 -237.97467041 102.4229126 C-233.16869866 102.45359742 -228.36268209 102.4673026 -223.55664062 102.48242188 C-214.12618018 102.51459915 -204.69592566 102.5658045 -195.265625 102.62890625 C-195.42886765 101.84948166 -195.59211029 101.07005707 -195.76029968 100.26701355 C-200.26439696 76.7528703 -190.20948001 48.65043884 -177.39160156 29.27294922 C-174.58732288 25.17841048 -171.50608906 21.38202185 -168.265625 17.62890625 C-167.62625 16.83355469 -166.986875 16.03820312 -166.328125 15.21875 C-147.02042771 -7.85541097 -116.16212234 -21.21023776 -86.67016602 -24.18579102 C-56.31308945 -26.52521848 -23.94928987 -20.00415491 0 0 Z " fill="#E42825" transform="translate(546.265625,485.37109375)"/>
<path d="M0 0 C1.27423828 1.03060547 1.27423828 1.03060547 2.57421875 2.08203125 C19.28353114 16.28366735 28.91118492 36.48469069 32 58 C33.70129034 90.61837563 28.02910745 120.12306502 6.3671875 145.3828125 C-14.54143599 168.49960745 -43.28429423 184.41835425 -74.8503418 186.21972656 C-79.10865173 186.36407227 -83.36458556 186.38608948 -87.625 186.375 C-88.37534515 186.37478851 -89.12569031 186.37457703 -89.89877319 186.37435913 C-101.36434602 186.34211168 -112.05413102 185.61331374 -123 182 C-124.17820312 181.61457031 -125.35640625 181.22914063 -126.5703125 180.83203125 C-137.53450571 176.90171141 -147.08994704 171.47036756 -156 164 C-156.72832031 163.42894531 -157.45664062 162.85789062 -158.20703125 162.26953125 C-175.31405185 148.21840575 -184.788859 126.10476416 -187.68359375 104.58984375 C-190.23096926 75.68813891 -184.07481814 46.68847146 -165.9375 23.5625 C-164.63497422 22.03311552 -163.32285533 20.51183466 -162 19 C-161.41089844 18.2678125 -160.82179688 17.535625 -160.21484375 16.78125 C-141.15417925 -6.2048592 -110.33124907 -18.74426473 -81.203125 -21.6875 C-52.30574559 -24.10247568 -22.80315559 -18.85300265 0 0 Z M-105.875 50 C-116.7247834 63.33565262 -120.41074951 77.9979698 -119 95 C-116.60942653 107.77249252 -110.64035167 118.40976561 -100 126 C-91.09655384 130.99461614 -81.91820054 132.5427045 -72 129.8125 C-58.29530544 125.25134004 -48.87796045 116.63898715 -42 104 C-35.3124549 88.96957685 -34.2516747 73.79695773 -39 58 C-42.92151693 48.07042317 -50.03501366 40.30878355 -59.703125 35.875 C-76.84340871 29.34536811 -94.1536452 37.13942065 -105.875 50 Z " fill="#E42825" transform="translate(742,489)"/>
<path d="M0 0 C0.79719955 0.00045319 1.59439911 0.00090637 2.41575623 0.00137329 C3.25184418 -0.00198532 4.08793213 -0.00534393 4.94935608 -0.00880432 C7.73724325 -0.0183635 10.52507043 -0.02026144 13.31297302 -0.02133179 C15.25903345 -0.02454645 17.20509364 -0.02791068 19.15115356 -0.03141785 C23.25124163 -0.03742528 27.3513086 -0.03925665 31.45140076 -0.03866577 C36.64979124 -0.03856531 41.84804153 -0.05208842 47.04639912 -0.06943798 C51.07990102 -0.08069641 55.11337084 -0.08258062 59.14688683 -0.08205605 C61.05900228 -0.08322042 62.97111901 -0.08755313 64.88321877 -0.09538841 C74.6952753 -0.13175619 84.4058229 0.07459889 94.17698669 1.02822876 C95.36176464 1.14302314 95.36176464 1.14302314 96.57047749 1.2601366 C115.03127476 3.25997181 133.54239899 9.47030983 147.44969177 22.14663696 C148.26824646 22.87366821 149.08680115 23.60069946 149.93016052 24.34976196 C165.56205743 39.01205558 172.68261818 58.74266505 173.73484802 79.78726196 C174.55301121 108.00512583 166.60263972 135.31319442 148.44969177 157.14663696 C147.7407074 158.00773071 147.03172302 158.86882446 146.30125427 159.75601196 C136.35076984 171.32300108 124.94476173 179.34437484 111.44969177 186.14663696 C110.80516052 186.47293091 110.16062927 186.79922485 109.49656677 187.13540649 C101.72155857 190.98932951 93.85642073 193.80812705 85.44969177 195.95913696 C84.31322205 196.25159302 84.31322205 196.25159302 83.15379333 196.54995728 C67.16193256 200.35179587 51.25530777 200.41967534 34.91844177 200.34194946 C32.58718488 200.33821099 30.2559264 200.33536797 27.92466736 200.33337402 C21.84208195 200.3258032 15.7595948 200.30621232 9.67704773 200.28396606 C3.44893217 200.26336512 -2.77919954 200.25434208 -9.00733948 200.24429321 C-21.1883718 200.22295916 -33.36933179 200.18890407 -45.55030823 200.14663696 C-41.7795242 178.29840314 -37.5384312 156.55417731 -33.21068096 134.81066346 C-32.46382593 131.05672522 -31.71864204 127.30245595 -30.97341561 123.54819411 C-29.21864705 114.70836291 -27.46108347 105.86909076 -25.70167542 97.03018188 C-23.88836866 87.92023228 -22.07995845 78.80931993 -20.27382636 69.69794542 C-18.71471599 61.83360793 -17.15264742 53.96986207 -15.58816552 46.1065914 C-14.65702449 41.42641232 -13.7270176 36.74601514 -12.79987335 32.0650425 C-11.93320496 27.6900675 -11.0628615 23.31584003 -10.18959808 18.94217682 C-9.86937829 17.33512175 -9.55048664 15.72780141 -9.23298645 14.12020683 C-8.80142721 11.93617988 -8.36518954 9.75314045 -7.9276886 7.57029724 C-7.56272089 5.73471111 -7.56272089 5.73471111 -7.1903801 3.86204243 C-6.09631957 -0.77933938 -4.45934062 0.02636655 0 0 Z M50.44969177 52.14663696 C46.32138546 71.61148644 42.45682991 91.12600478 38.61650085 110.64920044 C37.96771303 113.94510535 37.31722592 117.24067402 36.66675091 120.5362463 C36.0389637 123.71780989 35.41210362 126.89955558 34.78554726 130.08136177 C34.48716548 131.59614753 34.18852104 133.11088158 33.88960838 134.62556267 C33.47730906 136.71565755 33.06622897 138.80598841 32.65550232 140.89639282 C32.42187485 142.08309067 32.18824738 143.26978851 31.94754028 144.4924469 C31.41896582 146.86036733 31.41896582 146.86036733 31.44969177 148.14663696 C35.96626085 148.22154179 40.48248801 148.2755902 44.99949646 148.31143188 C46.53178721 148.3263944 48.06403606 148.34677193 49.59617615 148.37295532 C64.04000455 148.61337153 76.7666099 146.68045076 87.98484802 136.70523071 C100.15715575 123.75389529 104.99897156 106.87045279 104.87132263 89.41397095 C104.44714058 77.12949068 100.2915881 67.98853329 91.69969177 59.39663696 C82.0075464 52.68669017 71.97520852 51.98307424 60.51219177 52.08413696 C58.71719074 52.09563837 56.92218727 52.10676302 55.12718201 52.11758423 C53.80290443 52.12580956 53.80290443 52.12580956 52.45187378 52.13420105 C51.46079369 52.14035683 51.46079369 52.14035683 50.44969177 52.14663696 Z " fill="#E42825" transform="translate(817.5503082275391,470.8533630371094)"/>
<path d="M0 0 C1.00200748 -0.00384115 2.00401497 -0.00768229 3.03638631 -0.01163983 C4.69219269 -0.01034011 4.69219269 -0.01034011 6.3814497 -0.00901413 C7.55175911 -0.01198525 8.72206851 -0.01495637 9.92784184 -0.01801753 C13.18174024 -0.025205 16.43560651 -0.02787741 19.68951166 -0.028615 C23.19676994 -0.03046459 26.70401676 -0.03801144 30.21126842 -0.04475021 C37.882735 -0.05833782 45.55419635 -0.06435888 53.22567296 -0.06876087 C58.0146723 -0.0715225 62.80366961 -0.0757597 67.59266758 -0.08026505 C80.84891445 -0.09245813 94.10515969 -0.10275746 107.36141205 -0.10614014 C108.63429659 -0.10646949 108.63429659 -0.10646949 109.93289597 -0.10680549 C111.20884549 -0.10713291 111.20884549 -0.10713291 112.51057178 -0.10746694 C114.23431067 -0.1079104 115.95804956 -0.10835697 117.68178844 -0.10880661 C118.96434255 -0.10913875 118.96434255 -0.10913875 120.27280685 -0.10947761 C134.12958648 -0.1134262 147.98631354 -0.13088191 161.84307287 -0.15416613 C176.06553499 -0.17787221 190.28797072 -0.19034164 204.51045293 -0.19150805 C212.49750327 -0.19242522 220.48448512 -0.19818796 228.47151661 -0.21632767 C235.27226707 -0.2317186 242.07292787 -0.23685509 248.87369243 -0.22858956 C252.34380578 -0.2246795 255.8137385 -0.22562985 259.28382969 -0.23964691 C263.04553034 -0.25229134 266.80676449 -0.24653002 270.56846142 -0.23606491 C271.66564017 -0.24412132 272.76281892 -0.25217772 273.89324552 -0.26047826 C279.38435701 -0.22464496 283.47183415 -0.06184566 288.16543102 3.13142776 C290.93024514 6.33279148 292.05542805 8.37515736 292.66543102 12.56892776 C292.02732111 17.11546088 290.81388348 19.37945345 288.16543102 23.13142776 C285.12590375 25.09992327 282.728314 25.38295535 279.14534473 25.38869667 C277.61844656 25.39837001 277.61844656 25.39837001 276.06070197 25.40823877 C274.9441801 25.40514156 273.82765823 25.40204436 272.67730236 25.3988533 C270.8960553 25.40564997 270.8960553 25.40564997 269.07882345 25.41258395 C265.78151437 25.4230665 262.48442313 25.42455171 259.18711281 25.4221952 C255.63146363 25.42178742 252.07584712 25.43282242 248.52021313 25.44231033 C241.55370564 25.45892955 234.58723199 25.46442029 227.62070633 25.46553509 C221.95866238 25.4664851 216.29662961 25.47059302 210.6345892 25.47693634 C194.58538933 25.49455101 178.53621622 25.50377482 162.48700662 25.50227539 C161.62162886 25.50219548 160.7562511 25.50211557 159.86464977 25.50203323 C158.56500023 25.50191059 158.56500023 25.50191059 157.23909514 25.50178547 C143.19482803 25.50097243 129.15066813 25.52011397 115.10643204 25.54830997 C100.68957057 25.57702594 86.27276141 25.59085098 71.8558706 25.58912241 C63.76038898 25.58845808 55.66501976 25.59396927 47.56956387 25.61547852 C40.67731841 25.63367339 33.78523631 25.63805166 26.89297725 25.62445967 C23.37622901 25.61792144 19.85979433 25.61784314 16.34307575 25.63516617 C12.53108026 25.65375065 8.71954463 25.64136462 4.90752697 25.62590408 C3.79546654 25.63619121 2.68340612 25.64647834 1.53764689 25.65707719 C-4.5643674 25.6022231 -8.19663637 25.2298858 -12.83456898 21.13142776 C-15.2142224 18.10277796 -15.19418763 14.88391665 -15.08847523 11.09236526 C-14.58373055 7.1941833 -12.71689211 4.9034605 -9.83456898 2.38142776 C-6.51446334 0.30636174 -3.82109408 0.00549081 0 0 Z " fill="#E42825" transform="translate(137.83456897735596,900.8685722351074)"/>
<path d="M0 0 C1.61689727 -0.0037862 3.2337913 -0.00928872 4.85067749 -0.01637268 C9.22876404 -0.03030427 13.60645659 -0.01917426 17.98452115 -0.00266147 C22.57146574 0.01121486 27.15838805 0.0047261 31.74534607 0.00120544 C39.44634329 -0.00149436 47.14718445 0.01196012 54.84814453 0.03515625 C63.74655263 0.06177399 72.64469999 0.06350923 81.54313427 0.05176789 C90.11123266 0.04098286 98.67923689 0.04718226 107.2473278 0.06132317 C110.89034188 0.06707572 114.53328689 0.06700605 118.17630196 0.06225777 C122.46672173 0.0574798 126.75685654 0.0676235 131.04722214 0.08921242 C132.62016654 0.09476896 134.19313839 0.09525598 135.76608467 0.09025955 C137.91623473 0.08428695 140.06551923 0.0968483 142.21559143 0.11402893 C143.41773568 0.11645883 144.61987993 0.11888872 145.8584528 0.12139225 C150.98442704 0.71293668 154.16855617 2.3606077 157.52905273 6.25170898 C159.46960108 10.13280567 159.75631935 12.21055933 159.15405273 16.50170898 C157.86702333 19.7455484 156.38475942 22.65198873 153.44196129 24.68379307 C150.32455302 25.798251 147.60853 25.76339354 144.29751587 25.77586365 C143.60821122 25.78110033 142.91890656 25.786337 142.20871389 25.79173237 C139.89958189 25.80673097 137.5906715 25.80743748 135.28149414 25.80810547 C133.62563198 25.81572702 131.96977336 25.82415451 130.31391907 25.83332825 C125.81595581 25.85527963 121.31806054 25.86407291 116.82004976 25.86915469 C114.00983021 25.87279727 111.1996285 25.87903679 108.38941574 25.88615608 C98.5853675 25.91065205 88.7813722 25.92370296 78.97729492 25.92724609 C69.83860177 25.93088229 60.70024427 25.96078324 51.56165373 26.00265068 C43.71524803 26.03733793 35.86895366 26.05279426 28.02247179 26.05349213 C23.33626847 26.05428543 18.65040709 26.06304842 13.96428299 26.09148979 C9.55645041 26.11764398 5.14924393 26.11989069 0.74136925 26.10383415 C-0.87513531 26.10201758 -2.49167565 26.10872927 -4.1081028 26.12465286 C-6.31795711 26.14509294 -8.52561637 26.13457755 -10.73544312 26.11643982 C-12.58875024 26.11945681 -12.58875024 26.11945681 -14.47949791 26.12253475 C-18.97658969 25.29320089 -20.6179366 23.69728502 -23.84594727 20.50170898 C-26.0632589 16.15915402 -26.0580264 12.36416415 -24.90844727 7.68920898 C-19.03286792 -1.39123183 -9.67074257 -0.06441159 0 0 Z " fill="#E42825" transform="translate(270.845947265625,863.498291015625)"/>
<path d="M0 0 C5.024092 3.73112714 8.27677386 7.91802538 10 14 C11.26424538 25.55627114 7.95043333 35.76711505 1 45 C-7.15317329 54.14277947 -17.90742842 60.33013663 -30.234375 61.23828125 C-39.48440914 61.43355975 -45.83606465 60.22282489 -53.3125 54.75 C-58.36647529 49.5784904 -61.05205912 43.23751509 -61.3125 36 C-61.12213088 24.42555737 -55.6782385 15.92511844 -47.93359375 7.84375 C-35.34614554 -4.22578889 -15.79365991 -8.83198087 0 0 Z " fill="#FBFB00" transform="translate(866,737)"/>
<path d="M0 0 C4.37415276 -0.07493936 8.74795155 -0.12896881 13.12255859 -0.16479492 C14.60634889 -0.17975184 16.09009599 -0.20012495 17.57373047 -0.22631836 C28.44227106 -0.41320156 39.29430607 -0.46202337 48 7 C52.49202438 12.43771373 52.60728344 17.42746776 52.37890625 24.3671875 C51.34824277 34.24880645 47.7568448 41.78213381 41 49 C40.23236328 49.82951172 40.23236328 49.82951172 39.44921875 50.67578125 C30.39828517 59.36737256 18.68863964 62.18054905 6.5390625 62.09765625 C5.74849457 62.0962413 4.95792664 62.09482635 4.1434021 62.09336853 C1.63722834 62.08780504 -0.86885358 62.07525944 -3.375 62.0625 C-5.08202995 62.05748028 -6.78906132 62.0529182 -8.49609375 62.04882812 C-12.66409748 62.03784759 -16.83203321 62.02060839 -21 62 C-20.30640714 56.02613147 -18.26768148 50.58398675 -16.2890625 44.94140625 C-15.9202597 43.87889145 -15.55145691 42.81637665 -15.17147827 41.72166443 C-14.39200224 39.47925338 -13.61018084 37.2376564 -12.82617188 34.99682617 C-11.63108429 31.57989589 -10.44385347 28.16031394 -9.2578125 24.74023438 C-8.49785968 22.55713014 -7.73745781 20.37418217 -6.9765625 18.19140625 C-6.62332916 17.17454239 -6.27009583 16.15767853 -5.90615845 15.11000061 C-4.10904565 9.98310152 -2.21670298 4.96055401 0 0 Z " fill="#FCFCFC" transform="translate(539,819)"/>
<path d="M0 0 C5.26524445 -0.09943082 10.52993343 -0.17173199 15.79589844 -0.21972656 C17.58440684 -0.23974959 19.37285054 -0.26697654 21.16113281 -0.30175781 C23.74300162 -0.35068955 26.3239995 -0.37306165 28.90625 -0.390625 C30.09112 -0.42159271 30.09112 -0.42159271 31.29992676 -0.45318604 C38.18540683 -0.45592257 43.20558325 1.69460618 48.5 6.0625 C51.28318896 11.51291171 50.6984577 17.07275594 49.3046875 22.9140625 C46.45964671 31.5926323 41.93604167 37.49088542 34 42 C33.34 42 32.68 42 32 42 C32.54140625 43.78857422 32.54140625 43.78857422 33.09375 45.61328125 C33.56271467 47.17962324 34.03145289 48.74603305 34.5 50.3125 C34.73847656 51.09818359 34.97695313 51.88386719 35.22265625 52.69335938 C35.44824219 53.45068359 35.67382812 54.20800781 35.90625 54.98828125 C36.22045898 56.03302612 36.22045898 56.03302612 36.54101562 57.09887695 C37 59 37 59 37 62 C29.41 62 21.82 62 14 62 C12 51 12 51 12 46 C9.36 46 6.72 46 4 46 C3.80664062 46.73605469 3.61328125 47.47210937 3.4140625 48.23046875 C3.02347656 49.69419922 3.02347656 49.69419922 2.625 51.1875 C2.24214844 52.63189453 2.24214844 52.63189453 1.8515625 54.10546875 C1 57 1 57 -1 62 C-7.6 62 -14.2 62 -21 62 C-20.30946546 57.16625821 -19.7499043 53.77845444 -18.15820312 49.37182617 C-17.78111206 48.31771042 -17.404021 47.26359467 -17.01550293 46.17753601 C-16.60819946 45.06062881 -16.200896 43.94372162 -15.78125 42.79296875 C-15.36331177 41.63122635 -14.94537354 40.46948395 -14.51477051 39.27253723 C-13.1827692 35.5752327 -11.84136255 31.8814172 -10.5 28.1875 C-9.59621303 25.68346086 -8.69472 23.17860178 -7.79296875 20.67382812 C-6.14593069 16.10840174 -4.49851427 11.54312497 -2.84179688 6.98120117 C-2.50950073 6.06521652 -2.17720459 5.14923187 -1.83483887 4.20549011 C-1 2 -1 2 0 0 Z " fill="#FCFCFC" transform="translate(878,819)"/>
<path d="M0 0 C2.95064148 -0.2208564 5.68368231 -0.28060989 8.625 -0.1875 C9.42679688 -0.17396484 10.22859375 -0.16042969 11.0546875 -0.14648438 C13.03674378 -0.11109051 15.01845551 -0.05728234 17 0 C21.83396688 10.13273827 25.86811642 20.56524316 30 31 C35.445 15.655 35.445 15.655 41 0 C47.27 0 53.54 0 60 0 C57.82593788 7.45398851 55.39291639 14.77807658 52.8046875 22.09765625 C52.41177521 23.21313339 52.01886292 24.32861053 51.61404419 25.47789001 C50.78993033 27.81534513 49.96462659 30.15238104 49.13818359 32.48901367 C47.86817437 36.08180939 46.6038057 39.67655737 45.33984375 43.27148438 C44.53679563 45.54699406 43.73342201 47.82238891 42.9296875 50.09765625 C42.55053192 51.17668716 42.17137634 52.25571808 41.7807312 53.3674469 C41.43011627 54.3561528 41.07950134 55.3448587 40.71826172 56.36352539 C40.40976288 57.23715225 40.10126404 58.11077911 39.78341675 59.01087952 C39 61 39 61 38 62 C35.13732433 62.07325168 32.299281 62.09238205 29.4375 62.0625 C28.63119141 62.05798828 27.82488281 62.05347656 26.99414062 62.04882812 C24.99606244 62.03700518 22.99802217 62.01906914 21 62 C15.99316074 52.63624773 12.04986551 42.80239531 8 33 C5.99195462 36.01206807 5.00140191 38.56732298 3.8359375 41.98046875 C3.43632813 43.14384766 3.03671875 44.30722656 2.625 45.50585938 C2.2125 46.72080078 1.8 47.93574219 1.375 49.1875 C0.95476563 50.41404297 0.53453125 51.64058594 0.1015625 52.90429688 C-0.93614707 55.93488052 -1.96857524 58.96727164 -3 62 C-9.27 62 -15.54 62 -22 62 C-20.00124486 54.37398038 -17.70108048 46.95652862 -15.05859375 39.53125 C-14.50607689 37.96715393 -14.50607689 37.96715393 -13.94239807 36.37145996 C-13.17034591 34.1893283 -12.39631051 32.00789738 -11.62036133 29.82714844 C-10.43154575 26.48325191 -9.25154039 23.136334 -8.07226562 19.7890625 C-7.3182317 17.66127279 -6.56369255 15.53366204 -5.80859375 13.40625 C-5.45647324 12.40630005 -5.10435272 11.4063501 -4.74156189 10.37609863 C-4.41104324 9.45083374 -4.0805246 8.52556885 -3.73999023 7.57226562 C-3.4514769 6.75939087 -3.16296356 5.94651611 -2.8657074 5.10900879 C-2 3 -2 3 0 0 Z " fill="#FBFB00" transform="translate(892,734)"/>
<path d="M0 0 C6.93 0 13.86 0 21 0 C17 12 17 12 13 24 C19.27 24 25.54 24 32 24 C32.391875 22.453125 32.78375 20.90625 33.1875 19.3125 C34.9854777 12.67381312 37.45879381 6.38735611 40 0 C46.6 0 53.2 0 60 0 C57.75 10.125 57.75 10.125 56.02880859 14.88696289 C55.45844376 16.477593 55.45844376 16.477593 54.8765564 18.10035706 C54.47127716 19.21321579 54.06599792 20.32607452 53.6484375 21.47265625 C53.02009506 23.21814003 53.02009506 23.21814003 52.37905884 24.99888611 C51.04949548 28.68862983 49.71237193 32.3755803 48.375 36.0625 C47.46763074 38.57446737 46.56199343 41.08705484 45.65625 43.59960938 C43.4432426 49.73516321 41.2234541 55.86822461 39 62 C32.4 62 25.8 62 19 62 C20.09574282 54.32980028 22.3095241 48.24358895 25 41 C19.06 41 13.12 41 7 41 C4.36 47.93 1.72 54.86 -1 62 C-7.6 62 -14.2 62 -21 62 C-18.74986223 51.87438005 -18.74986223 51.87438005 -17.13647461 47.32836914 C-16.77947983 46.31444595 -16.42248505 45.30052277 -16.05467224 44.25587463 C-15.67440384 43.19303757 -15.29413544 42.1302005 -14.90234375 41.03515625 C-14.50801651 39.92063583 -14.11368927 38.80611542 -13.70741272 37.65782166 C-12.87859025 35.31813419 -12.04728553 32.9793247 -11.21362305 30.64135742 C-9.93344844 27.0511375 -8.66039795 23.45845463 -7.38867188 19.86523438 C-6.58113682 17.58839704 -5.77320811 15.31169928 -4.96484375 13.03515625 C-4.58255112 11.95814957 -4.20025848 10.88114288 -3.80638123 9.77149963 C-3.4525386 8.77964157 -3.09869598 7.78778351 -2.73413086 6.76586914 C-2.42261581 5.89144669 -2.11110077 5.01702423 -1.79014587 4.11610413 C-1 2 -1 2 0 0 Z " fill="#FBFBFB" transform="translate(729,734)"/>
<path d="M0 0 C2.21463013 -0.36076355 2.21463013 -0.36076355 5.00048828 -0.34057617 C6.56188034 -0.34023628 6.56188034 -0.34023628 8.15481567 -0.33988953 C9.28192963 -0.32440567 10.40904358 -0.30892181 11.5703125 -0.29296875 C13.29735916 -0.28660149 13.29735916 -0.28660149 15.05929565 -0.28010559 C18.74809855 -0.26327052 22.43636136 -0.22560874 26.125 -0.1875 C28.62108588 -0.17245944 31.11718029 -0.15876995 33.61328125 -0.14648438 C39.74237275 -0.1133512 45.8711478 -0.06310389 52 0 C51.54548816 1.73017508 51.08621143 3.45909877 50.625 5.1875 C50.24214844 6.63189453 50.24214844 6.63189453 49.8515625 8.10546875 C49 11 49 11 47 16 C36.11 16 25.22 16 14 16 C13.67 17.98 13.34 19.96 13 22 C26.86 22.495 26.86 22.495 41 23 C40 28 40 28 36 39 C26.1 39 16.2 39 6 39 C5.34 41.64 4.68 44.28 4 47 C14.56 47 25.12 47 36 47 C33 58 33 58 31 62 C13.51 62 -3.98 62 -22 62 C-18.62409583 49.62168472 -18.62409583 49.62168472 -17.13061523 45.39257812 C-16.79694443 44.44209595 -16.46327362 43.49161377 -16.11949158 42.5123291 C-15.76939529 41.528573 -15.41929901 40.54481689 -15.05859375 39.53125 C-14.50607689 37.96715393 -14.50607689 37.96715393 -13.94239807 36.37145996 C-13.17034591 34.1893283 -12.39631051 32.00789738 -11.62036133 29.82714844 C-10.43154575 26.48325191 -9.25154039 23.136334 -8.07226562 19.7890625 C-7.3182317 17.66127279 -6.56369255 15.53366204 -5.80859375 13.40625 C-5.45647324 12.40630005 -5.10435272 11.4063501 -4.74156189 10.37609863 C-4.41104324 9.45083374 -4.0805246 8.52556885 -3.73999023 7.57226562 C-3.4514769 6.75939087 -3.16296356 5.94651611 -2.8657074 5.10900879 C-2 3 -2 3 0 0 Z " fill="#FBFBFB" transform="translate(607,819)"/>
<path d="M0 0 C17.16 0 34.32 0 52 0 C51 5 51 5 47 16 C31.16 16.495 31.16 16.495 15 17 C14.34 18.98 13.68 20.96 13 23 C22.24 23 31.48 23 41 23 C38 34 38 34 36 39 C26.1 39 16.2 39 6 39 C5.67 40.98 5.34 42.96 5 45 C4.67 45.66 4.34 46.32 4 47 C14.56 47 25.12 47 36 47 C34 56 34 56 32 62 C14.51 62 -2.98 62 -21 62 C-19.87483011 54.12381077 -19.87483011 54.12381077 -18.48120117 50.12548828 C-18.17385544 49.23411163 -17.8665097 48.34273499 -17.54985046 47.42434692 C-17.2175795 46.48251556 -16.88530853 45.5406842 -16.54296875 44.5703125 C-16.19873367 43.58054413 -15.8544986 42.59077576 -15.49983215 41.5710144 C-14.7723965 39.48393715 -14.04183841 37.3979459 -13.30834961 35.31298828 C-12.19450389 32.1449209 -11.09159984 28.97320601 -9.99023438 25.80078125 C-9.27929392 23.76539851 -8.56772569 21.73023492 -7.85546875 19.6953125 C-7.52927048 18.7575296 -7.2030722 17.8197467 -6.86698914 16.85354614 C-6.55018692 15.95586517 -6.2333847 15.0581842 -5.90698242 14.13330078 C-5.63464279 13.35721466 -5.36230316 12.58112854 -5.08171082 11.78152466 C-3.53155009 7.79542208 -1.73702018 3.9082954 0 0 Z " fill="#FBFBFB" transform="translate(817,819)"/>
<path d="M0 0 C1.46856445 0.04060547 1.46856445 0.04060547 2.96679688 0.08203125 C5.37596621 0.15254352 7.78058819 0.25101432 10.1875 0.375 C11.83065788 13.68820099 13.33536404 26.99964612 14.375 40.375 C14.45862793 41.42864746 14.54225586 42.48229492 14.62841797 43.56787109 C15.09828271 49.89437251 15.1875 55.98448072 15.1875 62.375 C7.9275 62.375 0.6675 62.375 -6.8125 62.375 C-6.8125 59.735 -6.8125 57.095 -6.8125 54.375 C-10.70994661 54.33960532 -14.60287859 54.38153904 -18.5 54.4375 C-20.15418945 54.42106445 -20.15418945 54.42106445 -21.84179688 54.40429688 C-24.98023423 54.47066866 -27.7685139 54.5976372 -30.8125 55.375 C-32.42805008 57.07810114 -33.36151455 58.76754246 -34.48510742 60.81860352 C-35.8125 62.375 -35.8125 62.375 -38.05200195 62.94897461 C-40.77277008 63.06264586 -43.40770776 62.98725166 -46.125 62.8125 C-47.05634766 62.78091797 -47.98769531 62.74933594 -48.94726562 62.71679688 C-51.23892852 62.63453205 -53.52407286 62.51971638 -55.8125 62.375 C-54.37788776 58.17799609 -52.31887819 55.20916336 -49.5625 51.75 C-48.65440849 50.59519571 -47.74827357 49.43885107 -46.84375 48.28125 C-46.35519531 47.65605469 -45.86664062 47.03085937 -45.36328125 46.38671875 C-42.53608515 42.71919736 -39.80238188 38.98294118 -37.0625 35.25 C-36.47702393 34.45360107 -35.89154785 33.65720215 -35.28833008 32.83666992 C-32.82289115 29.48109151 -30.36060904 26.12321012 -27.89990234 22.76416016 C-26.62965618 21.0305375 -25.358671 19.29745608 -24.08691406 17.56494141 C-22.89573213 15.94218558 -21.70617771 14.31823334 -20.51855469 12.69287109 C-19.44757318 11.23431744 -18.36519243 9.78404221 -17.26977539 8.34375 C-15.80885979 6.43222129 -15.80885979 6.43222129 -14.68139648 4.515625 C-10.94776906 -1.14264701 -6.09260879 -0.31915614 0 0 Z " fill="#FAFAFA" transform="translate(626.8125,733.625)"/>
<path d="M0 0 C0.79108154 0.00088623 1.58216309 0.00177246 2.3972168 0.00268555 C11.36194256 0.18207112 18.78795948 2.62118108 26.375 7.375 C22.96945921 12.64130019 19.49831138 17.6453193 15.375 22.375 C11.83239178 21.77828408 8.88684234 20.79951636 5.625 19.3125 C0.61633299 17.22931567 -3.24133987 17.02766709 -8.625 17.375 C-8.41893075 19.33772087 -8.41893075 19.33772087 -7.625 21.375 C-5.93757865 22.45344393 -5.93757865 22.45344393 -3.80078125 23.05078125 C-2.62805664 23.45780273 -2.62805664 23.45780273 -1.43164062 23.87304688 C0.21001964 24.40912544 1.85322273 24.94050591 3.49804688 25.46679688 C9.23122401 27.46848668 13.29265091 29.98646394 16.375 35.375 C17.74898234 41.8963208 15.95409284 47.86017243 12.375 53.375 C5.56271291 61.17145498 -3.03311506 64.81136006 -13.203125 65.56640625 C-24.74695597 66.03480777 -34.98237564 63.20819428 -43.625 55.375 C-42.22101721 51.27389238 -40.25412962 48.39410841 -37.5 45.0625 C-36.77554688 44.17949219 -36.05109375 43.29648437 -35.3046875 42.38671875 C-34.75039063 41.72285156 -34.19609375 41.05898438 -33.625 40.375 C-30.50082957 40.99426764 -28.328681 42.04996931 -25.6875 43.8125 C-19.71173155 47.62026406 -15.69899142 48.72290122 -8.625 48.375 C-7.965 48.045 -7.305 47.715 -6.625 47.375 C-6.625 46.055 -6.625 44.735 -6.625 43.375 C-10.61803715 41.55209174 -14.4416156 40.1240995 -18.6875 39 C-24.14894917 37.41227277 -27.51631311 35.15463272 -31 30.5625 C-32.48528284 25.36401007 -32.19511575 21.02263656 -29.9375 16.1875 C-25.88491485 8.95780107 -19.46687001 4.37444848 -11.91015625 1.25390625 C-7.86700082 0.17220593 -4.1683061 -0.00838693 0 0 Z " fill="#FBFBFB" transform="translate(689.625,732.625)"/>
<path d="M0 0 C3.46418756 2.06350522 6.25203895 4.50364867 9.1640625 7.2890625 C7.56163183 11.495443 4.43008466 14.10426428 1.1640625 17.0390625 C0.6175 17.54566406 0.0709375 18.05226563 -0.4921875 18.57421875 C-4.57751432 22.2890625 -4.57751432 22.2890625 -6.8359375 22.2890625 C-7.4546875 21.5053125 -8.0734375 20.7215625 -8.7109375 19.9140625 C-11.88527557 15.99282135 -13.58771186 15.45549258 -18.5859375 14.7890625 C-23.85532351 14.92695297 -27.20873806 17.67853984 -30.8359375 21.2890625 C-34.17518269 25.77617322 -34.42419765 30.26377486 -34.23828125 35.71484375 C-33.96091757 38.53912163 -33.96091757 38.53912163 -31.8984375 41.5390625 C-28.22584711 43.63768558 -26.34178043 43.70768172 -22.25 43.0234375 C-18.75473128 41.96015187 -15.83484005 40.23100286 -12.78125 38.25 C-10.8359375 37.2890625 -10.8359375 37.2890625 -7.8359375 38.2890625 C-6.1953125 40.21484375 -6.1953125 40.21484375 -4.5859375 42.6015625 C-4.04453125 43.38144531 -3.503125 44.16132812 -2.9453125 44.96484375 C-1.8359375 47.2890625 -1.8359375 47.2890625 -1.921875 49.39453125 C-4.60499234 54.95569325 -12.19538186 57.58868961 -17.6484375 59.6015625 C-25.94145245 62.43770181 -34.25318138 64.13041592 -42.6484375 60.6015625 C-48.98773814 57.34135074 -53.49062154 53.72131021 -56.13671875 47 C-58.78381707 36.73694841 -56.95179857 27.39684546 -51.8359375 18.2890625 C-41.11680277 1.40382357 -19.2511131 -8.94951411 0 0 Z " fill="#FBFBFB" transform="translate(576.8359375,735.7109375)"/>
<path d="M0 0 C7.26 0 14.52 0 22 0 C22.33 12.87 22.66 25.74 23 39 C24.588125 36.380625 26.17625 33.76125 27.8125 31.0625 C31.79279142 24.52951903 35.84526658 18.04851539 40 11.625 C40.68412964 10.56551147 40.68412964 10.56551147 41.38208008 9.48461914 C43.80954024 5.75058887 43.80954024 5.75058887 45 4 C45.44190674 3.27635254 45.88381348 2.55270508 46.33911133 1.80712891 C48 0 48 0 50.26831055 -0.45410156 C51.56442261 -0.42268066 51.56442261 -0.42268066 52.88671875 -0.390625 C53.82451172 -0.37773438 54.76230469 -0.36484375 55.72851562 -0.3515625 C56.70498047 -0.31804688 57.68144531 -0.28453125 58.6875 -0.25 C59.67556641 -0.23195313 60.66363281 -0.21390625 61.68164062 -0.1953125 C64.12206842 -0.14815447 66.56054769 -0.08236042 69 0 C64.45249158 7.4283241 59.53507392 14.48641313 54.40698242 21.52099609 C48.38557183 29.80032904 42.5566803 38.21039699 36.7265625 46.625 C35.78453979 47.9545874 35.78453979 47.9545874 34.82348633 49.31103516 C32.95592647 51.9859102 32.95592647 51.9859102 31.36987305 54.88818359 C27.41707185 61.57535557 27.41707185 61.57535557 23.38964844 62.78222656 C20.38336425 62.98468022 17.5639403 62.87886287 14.5625 62.625 C13.54478516 62.57988281 12.52707031 62.53476562 11.47851562 62.48828125 C8.97950704 62.3709569 6.49288715 62.20728881 4 62 C2.60196383 49.0607291 1.63560678 36.11502523 0.875 23.125 C0.83070862 22.37889465 0.78641724 21.63278931 0.74078369 20.86407471 C0.61344358 18.70380468 0.48954875 16.54336978 0.3671875 14.3828125 C0.29612793 13.12871582 0.22506836 11.87461914 0.15185547 10.58251953 C0.00245065 7.05781492 0 3.52786967 0 0 Z " fill="#FCFCFC" transform="translate(744,819)"/>
<path d="M0 0 C6.6 0 13.2 0 20 0 C20.433125 1.77375 20.86625 3.5475 21.3125 5.375 C22.70853469 10.97243433 24.28228495 16.49356594 26 22 C27.87823984 19.83607319 29.75260134 17.66897244 31.625 15.5 C32.14707031 14.89929688 32.66914062 14.29859375 33.20703125 13.6796875 C33.72910156 13.07382812 34.25117187 12.46796875 34.7890625 11.84375 C35.32805176 11.22564453 35.86704102 10.60753906 36.42236328 9.97070312 C38.0543308 8.01962592 38.0543308 8.01962592 39.35498047 5.76367188 C42.72098069 0.33082942 42.72098069 0.33082942 46.43896484 -0.63085938 C49.29291565 -0.78746312 52.02433447 -0.7008599 54.875 -0.5 C55.84953125 -0.46390625 56.8240625 -0.4278125 57.828125 -0.390625 C60.22284579 -0.29671438 62.60934709 -0.16561944 65 0 C61.38078572 4.91274391 57.66875465 9.68887203 53.6875 14.3125 C49.45850825 19.26769681 45.28131929 24.25747443 41.1953125 29.33203125 C39.71123943 31.13562895 38.18322297 32.90381065 36.6171875 34.63671875 C29.37783643 42.8198136 26.13011729 51.34941357 24 62 C17.07 62 10.14 62 3 62 C5 52 5 52 6.125 48.8125 C7.98242369 42.84220957 6.79024509 37.02618694 5.46875 31.0546875 C5.23569153 29.95533371 5.23569153 29.95533371 4.9979248 28.83377075 C4.50529289 26.51269273 4.00352748 24.19373679 3.5 21.875 C2.99719589 19.54898864 2.49656717 17.22259926 2.0020752 14.89480591 C1.69548751 13.45238517 1.38412317 12.01096879 1.06726074 10.57077026 C0.28182696 6.88454826 0 3.820916 0 0 Z " fill="#FBFBFB" transform="translate(937,819)"/>
<path d="M0 0 C6.6 0 13.2 0 20 0 C19.33452438 3.32737809 18.7058687 6.10496721 17.60131836 9.23950195 C17.32110336 10.03995438 17.04088837 10.8404068 16.75218201 11.66511536 C16.45111038 12.5142601 16.15003876 13.36340485 15.83984375 14.23828125 C15.53051407 15.11904831 15.22118439 15.99981537 14.90248108 16.90727234 C13.91729437 19.71013157 12.92746472 22.51132524 11.9375 25.3125 C11.26727088 27.21668876 10.59734551 29.12098446 9.92773438 31.02539062 C8.28923945 35.68505092 6.64447274 40.34242882 5 45 C13.25 45 21.5 45 30 45 C28.44584923 50.69855282 26.86785676 56.39642971 25 62 C9.49 62 -6.02 62 -22 62 C-19.97439108 55.24797028 -17.88434065 48.58229607 -15.56640625 41.93359375 C-15.24719711 41.01465836 -14.92798798 40.09572296 -14.59910583 39.14894104 C-13.92876303 37.22170676 -13.25728647 35.29486648 -12.5847168 33.3684082 C-11.56444579 30.44307898 -10.55062092 27.51556754 -9.53710938 24.58789062 C-8.88060013 22.70298849 -8.22371179 20.81821835 -7.56640625 18.93359375 C-7.26835587 18.07084335 -6.97030548 17.20809296 -6.66322327 16.31919861 C-6.37289719 15.49126297 -6.08257111 14.66332733 -5.78344727 13.81030273 C-5.53490494 13.09655991 -5.28636261 12.38281708 -5.0302887 11.64744568 C-3.49653157 7.70627979 -1.71759599 3.86459098 0 0 Z " fill="#FBFBFB" transform="translate(668,819)"/>
<path d="M0 0 C2.06298828 -0.34057617 2.06298828 -0.34057617 4.5703125 -0.29296875 C5.46621094 -0.28330078 6.36210938 -0.27363281 7.28515625 -0.26367188 C8.69087891 -0.2259668 8.69087891 -0.2259668 10.125 -0.1875 C11.06988281 -0.17396484 12.01476562 -0.16042969 12.98828125 -0.14648438 C15.326116 -0.11106264 17.66268011 -0.05913077 20 0 C17.91961369 7.20642473 15.55323853 14.27593539 13.0234375 21.3359375 C12.65272125 22.37771149 12.282005 23.41948547 11.90005493 24.49282837 C10.72737123 27.78772308 9.55150297 31.08146728 8.375 34.375 C7.19157527 37.69003245 6.00889865 41.00532267 4.82852173 44.32144165 C4.09693554 46.37659932 3.36358489 48.43112995 2.62826538 50.48495483 C2.13237411 51.87758041 2.13237411 51.87758041 1.62646484 53.29833984 C1.3357309 54.11201019 1.04499695 54.92568054 0.74545288 55.76400757 C0.06275748 57.81175838 -0.4764737 59.9058948 -1 62 C-7.93 62 -14.86 62 -22 62 C-20.00124486 54.37398038 -17.70108048 46.95652862 -15.05859375 39.53125 C-14.50607689 37.96715393 -14.50607689 37.96715393 -13.94239807 36.37145996 C-13.17034591 34.1893283 -12.39631051 32.00789738 -11.62036133 29.82714844 C-10.43154575 26.48325191 -9.25154039 23.136334 -8.07226562 19.7890625 C-7.3182317 17.66127279 -6.56369255 15.53366204 -5.80859375 13.40625 C-5.45647324 12.40630005 -5.10435272 11.4063501 -4.74156189 10.37609863 C-4.41104324 9.45083374 -4.0805246 8.52556885 -3.73999023 7.57226562 C-3.4514769 6.75939087 -3.16296356 5.94651611 -2.8657074 5.10900879 C-2 3 -2 3 0 0 Z " fill="#FBFBFB" transform="translate(720,819)"/>
<path d="M0 0 C2.76606244 2.158878 3.77644129 3.61185636 4.3359375 7.0859375 C4.6372088 13.87612913 2.62330781 18.71859443 -1.3125 24.25 C-4.91701813 27.93834413 -7.91346693 29.65224449 -13 30.5 C-17.26096064 29.78983989 -18.92314769 28.0052976 -22 25 C-23.8756468 21.2487064 -23.52629611 17.08477548 -23 13 C-20.73239952 7.34077293 -16.88140224 3.50187552 -12 0 C-7.81243095 -1.39585635 -4.25764725 -1.09131031 0 0 Z " fill="#1F1F19" transform="translate(850,751)"/>
<path d="M0 0 C4.06219391 0.04520725 6.5258907 0.61209239 9.75 3.25 C12.26558456 7.02337684 12.46220846 9.88864096 11.75 14.25 C9.44510132 20.75911302 6.47961237 25.38873949 0.75 29.25 C-2.53519475 30.34506492 -4.98663415 30.34960608 -8.4375 30.3125 C-10.06751953 30.29896484 -10.06751953 30.29896484 -11.73046875 30.28515625 C-12.56191406 30.27355469 -13.39335938 30.26195312 -14.25 30.25 C-12.89043269 23.5273154 -10.99586508 17.20390321 -8.6875 10.75 C-8.21280273 9.39261719 -8.21280273 9.39261719 -7.72851562 8.0078125 C-4.93156971 0.09797821 -4.93156971 0.09797821 0 0 Z " fill="#202020" transform="translate(558.25,834.75)"/>
<path d="M0 0 C2.12472576 -0.05386629 4.24983652 -0.09273071 6.375 -0.125 C7.55835938 -0.14820313 8.74171875 -0.17140625 9.9609375 -0.1953125 C13 0 13 0 15 2 C14.91657387 6.42158491 14.45081976 8.46826387 11.5625 11.875 C7.72068962 15.06089154 5.81120052 15.11501277 0.875 15.0625 C-0.22070312 15.05347656 -1.31640625 15.04445313 -2.4453125 15.03515625 C-3.70988281 15.01775391 -3.70988281 15.01775391 -5 15 C-4.54705135 13.24859857 -4.08741252 11.49892656 -3.625 9.75 C-3.36976563 8.77546875 -3.11453125 7.8009375 -2.8515625 6.796875 C-2.10401491 4.34162697 -1.22876183 2.24382595 0 0 Z " fill="#272727" transform="translate(893,835)"/>
<path d="M0 0 C0.33 0 0.66 0 1 0 C1 5.61 1 11.22 1 17 C-2.96 17 -6.92 17 -11 17 C-7.76420349 11.04613442 -4.12599919 5.38220892 0 0 Z " fill="#212121" transform="translate(618,756)"/>
</svg>
