<?xml version="1.0" encoding="utf-8"?>
<!-- Generator: Adobe Illustrator 19.2.1, SVG Export Plug-In . SVG Version: 6.00 Build 0)  -->
<svg version="1.1" id="layer" xmlns="http://www.w3.org/2000/svg" xmlns:xlink="http://www.w3.org/1999/xlink" x="0px" y="0px"
	 viewBox="0 0 652 652" style="enable-background:new 0 0 652 652;" xml:space="preserve">
<style type="text/css">
	.st0{fill:#13A7A8;}
</style>
<path class="st0" d="M42.1,315.9c-2.8,0-5.1-2.3-5-5.1c0-1,0.3-1.9,0.8-2.7c13.3-21.2,41.2-27.6,62.4-14.3c1.2,0.7,2.3,1.5,3.4,2.4
	c2.3,1.6,2.8,4.8,1.2,7c-1.6,2.3-4.8,2.8-7,1.2c-0.1,0-0.1-0.1-0.2-0.1c-15.4-11.8-37.5-8.9-49.4,6.5c-0.7,0.9-1.3,1.8-1.9,2.8
	C45.4,315.1,43.8,315.9,42.1,315.9 M31.2,302.6c-2.8,0-5.1-2.3-5.1-5.1c0-1,0.3-1.9,0.8-2.7c16.6-26.4,51.5-34.4,77.9-17.8
	c1.5,0.9,2.9,1.9,4.3,3c2.2,1.7,2.5,4.9,0.8,7.1c-1.7,2.1-4.6,2.5-6.8,1c-20.3-15.6-49.4-11.8-65.1,8.5c-0.9,1.2-1.8,2.4-2.6,3.7
	C34.5,301.8,32.9,302.6,31.2,302.6 M561.2,344.8v0.8c0.1,13.9,11.2,25.1,25.1,25.4h1.4c6-0.1,11.8-2.3,16.3-6.3
	c1.8-1.6,3.4-3.4,4.7-5.4c2.6-4.1,4.1-8.8,4.1-13.7v-0.9c-0.2-13.8-11.3-25.1-25.1-25.4h-1.4c-6,0.1-11.8,2.3-16.3,6.3
	C564.6,330.6,561.4,337.5,561.2,344.8 M619.3,274.9h0.5c2.5,0.1,4.8,1.6,5.8,4c0.3,0.8,0.5,1.6,0.5,2.4V378c-0.1,2.6-1.7,5-4.2,5.9
	c-0.8,0.3-1.7,0.4-2.5,0.5c-2.7,0-5.1-1.7-6-4.2c-0.4-1.5-1.7-2.6-3.2-2.6h-0.1c-0.9,0.1-1.8,0.4-2.6,1c-5.9,3.7-12.8,5.7-19.8,5.8
	h-1.1c-8-0.1-15.8-2.6-22.4-7.3c-3.6-2.6-6.7-5.8-9.2-9.4c-9.4-13.6-9.3-31.6,0.2-45.1c2.7-3.7,6-6.9,9.8-9.4
	c3.5-2.5,7.4-4.4,11.6-5.5c3.5-0.9,7.1-1.4,10.7-1.4c7.4,0.1,14.7,2.3,21,6.3c0.4,0.2,0.9,0.3,1.3,0.3c1.5,0,2.8-1,3.2-2.4
	c0-0.3,0.1-0.6,0.1-0.9v-26.7c-0.3-3,1.3-6,4-7.3C617.7,275.1,618.5,275,619.3,274.9 M176.3,345.3v0.5c0.2,13.9,11.4,25.1,25.3,25.2
	h1c13.9-0.1,25.2-11.3,25.3-25.3v-0.5c0.1-7.1-2.8-14-8-18.9c-2.6-2.4-5.7-4.3-9.1-5.6c-2.6-0.9-5.3-1.4-8.1-1.4h-1.4
	c-4.7,0.1-9.2,1.5-13.1,4c-2.1,1.4-4,3-5.7,4.9c-2.3,2.6-4,5.7-5,9.1C176.7,339.9,176.3,342.6,176.3,345.3 M201.5,306.2h1.3
	c8.5,0.2,16.7,3.1,23.5,8.3c2.7,2.2,5.2,4.7,7.2,7.5c5.1,6.8,7.8,15,7.8,23.4c0,10.3-4,20.1-11.2,27.5c-7.3,7.2-17,11.3-27.2,11.6
	h-1.3c-8.5-0.1-16.8-3.1-23.5-8.3c-2.5-1.9-4.7-4.2-6.6-6.6c-5.5-6.9-8.4-15.4-8.4-24.2c0-9.7,3.6-19,10.1-26.2
	c2.2-2.5,4.7-4.6,7.5-6.4C186.8,308.5,194.1,306.3,201.5,306.2 M262.6,345.2v0.6c0.3,13.9,11.4,25.1,25.3,25.3h1
	c13.9-0.2,25.1-11.4,25.3-25.3v-0.6c0-6.8-2.7-13.4-7.6-18.2c-2.7-2.8-6-4.8-9.7-6c-2.5-0.9-5.2-1.4-7.9-1.5h-1.3
	C273.8,319.9,262.6,331.3,262.6,345.2 M255.7,275.1h0.6c2.3,0.1,4.3,1.4,5.4,3.4c0.7,1.4,1,3,0.9,4.6v27c0,1.2,0.8,2.1,2.4,2.7
	c0.5,0.1,0.8,0.1,0.8,0.1c1.9-0.6,3.8-1.4,5.4-2.6c5.2-2.5,10.9-3.8,16.6-3.9h1.3c7.3,0.1,14.5,2.3,20.6,6.3
	c7.3,4.7,12.8,11.8,15.5,20.1c1.3,4,2,8.2,2.1,12.4v0.5c-0.1,9.3-3.5,18.4-9.6,25.4c-2.1,2.4-4.5,4.5-7.1,6.3
	c-6.5,4.6-14.3,7-22.2,7c-7.6,0-15.1-2.2-21.5-6.3c-0.4-0.3-1-0.5-1.5-0.5h-0.2c-1.6,0-2.9,1.2-3.7,3.7c-2,3.1-6,4-9.1,2
	c-0.9-0.6-1.7-1.4-2.2-2.4c-0.4-0.9-0.7-1.9-0.8-2.9v-96.7c0.1-2.4,1.5-4.6,3.7-5.6C253.9,275.3,254.8,275.1,255.7,275.1
	 M341.3,306.3h1.1c1.9,0.1,3.7,1.1,4.8,2.6c0.7,1.1,1.2,2.3,1.2,3.6V378c-0.1,2.5-1.6,4.8-3.9,5.8c-0.8,0.3-1.5,0.5-2.4,0.5h-0.6
	c-2.3-0.1-4.3-1.4-5.4-3.4c-0.7-1.4-1-3-0.9-4.5v-62.3c-0.4-2.7,0.9-5.4,3.1-6.9C339.2,306.7,340.2,306.3,341.3,306.3 M341.6,280
	h0.4c3,0,5.8,1.8,7.1,4.5c0.6,1.1,0.8,2.2,0.8,3.4v0.8c-0.1,3-1.9,5.8-4.7,7c-1.1,0.5-2.3,0.8-3.5,0.8c-3.4,0.1-6.4-2-7.6-5.2
	c-0.3-0.8-0.5-1.7-0.5-2.6V288c0-3.4,2.2-6.5,5.5-7.5C339.9,280.2,340.7,280,341.6,280 M392.2,306.2c8,0,15.7,2.4,22.3,6.9
	c1.5,1.3,2.3,3.2,2.3,5.2c0,2.3-1.4,4.5-3.4,5.6c-0.9,0.5-2,0.8-3.1,0.8c-2.1-0.2-4-0.9-5.6-2.2c-3.8-2.1-8.1-3.2-12.5-3.1h-0.5
	c-4.4,0.1-8.6,1.3-12.4,3.5c-5.4,3.2-9.5,8.1-11.5,14c-0.9,2.7-1.4,5.5-1.4,8.4c0,7.2,3.1,14.1,8.4,19c3,2.7,6.5,4.7,10.4,5.8
	c2.1,0.6,4.3,0.9,6.5,1h0.6c5.2,0,10.3-1.5,14.6-4.4c1.1-0.6,2.2-0.9,3.4-0.9c2.2,0.1,4.2,1.2,5.4,3c0.7,1.1,1,2.3,1.1,3.6
	c0,2.7-1.7,5.2-4.2,6.3c-13.9,8.4-31.5,7.4-44.3-2.6c-2-1.6-3.8-3.4-5.5-5.3c-1.7-1.9-3.2-4-4.4-6.2c-3.4-5.9-5.1-12.5-5.1-19.2
	c0-8.5,2.8-16.8,7.9-23.6c1.6-2,3.3-3.8,5.1-5.6c2.4-2.1,5.1-4,7.9-5.5C379.7,307.7,385.9,306.2,392.2,306.2 M431.1,306.2
	c2,0.1,3.9,1.1,5.2,2.6c0.5,0.3,1.2,0.5,1.8,0.5h0.2c1.3-0.2,2.5-0.7,3.6-1.3c3.2-1.2,6.5-1.8,9.9-1.8c6.5,0,12.9,2.4,17.8,6.6
	c0.5,0.5,0.9,0.9,1.4,1.5c-5,5.1-7.6,7.6-7.8,7.6c-0.5,0.3-1.1,0.5-1.7,0.5c-1.3-0.2-2.4-0.7-3.4-1.5c-2-1-4.3-1.5-6.6-1.5
	c-3.9,0-7.7,1.7-10.3,4.6c-2.4,2.7-3.8,6.2-3.7,9.8v42.9c0.3,2.3-0.6,4.5-2.4,6c-1.1,1-2.5,1.6-3.9,1.6h-0.7c-2.7-0.1-5-1.9-5.9-4.4
	c-0.3-1-0.4-2.1-0.4-3.1v-62.9c-0.2-2.2,0.6-4.3,2.2-5.7C427.7,306.9,429.3,306.2,431.1,306.2 M483.1,345.2c0,3.6,0.4,5.7,1.3,6.3
	c0.7,0.6,1.5,0.9,2.4,0.9c1.6-0.5,3.1-1.4,4.3-2.6c0.2-0.1,10.5-7.4,30.7-21.8c0.7-0.6,1.1-1.5,1.1-2.4v-0.4c-0.1-1-0.6-1.9-1.5-2.4
	c-3.6-2-7.6-3.1-11.7-3.2h-1.5C494.3,319.7,483.1,331.1,483.1,345.2 M509,306.2c10.8,0,21.1,4.4,28.5,12.3c2.2,1.9,3.8,4.5,4.4,7.3
	c0,0.3,0,0.6,0.1,0.8c-0.1,1.8-0.9,3.5-2.2,4.7c-0.8,0.7-13.4,9.7-37.9,27c0,0-2.1,1.6-6.2,4.5c-0.5,0.6-0.9,1.3-0.9,2.1v0.5
	c0.1,1.1,0.6,2,1.6,2.5c3.6,1.9,7.6,3,11.7,3.1h1.5c9-0.2,17.2-5,21.7-12.8c1.1-1.8,1.9-3.7,2.5-5.7c0.2-1.9,1-3.7,2.1-5.2
	c1.2-1.2,2.9-2,4.6-2.1c2.8-0.1,5.4,1.6,6.3,4.3c0.3,0.7,0.4,1.4,0.4,2.1v0.2c-0.4,3.4-1.3,6.6-2.8,9.7c-1.4,3-3.2,5.8-5.3,8.4
	c-2,2.4-4.2,4.5-6.7,6.4c-2.7,2-5.6,3.7-8.8,5c-4.4,1.9-9.2,2.9-14,3h-1.2c-8.2-0.1-16.1-2.7-22.7-7.6c-3.3-2.5-6.2-5.4-8.7-8.8
	c-1.5-2.2-2.8-4.5-4-6.9c-2.1-5-3.3-10.3-3.3-15.7c0-9.3,3.3-18.4,9.3-25.6c1.9-2.2,4-4.1,6.3-5.9
	C492.2,308.9,500.5,306.1,509,306.2 M145.3,314.4c-2.4-2.1-5.1-3.9-8-5.3c-0.7-0.3-1.5-0.6-2.2-1l-0.7-0.2c-3.1-1-6.4-1.5-9.7-1.6
	c-4,0-8,0.8-11.7,2.3c-0.1,0.1-0.3,0.1-0.4,0.2c-0.5,0.2-0.9,0.4-1.4,0.7c-0.5,0.2-1,0.5-1.4,0.7c-0.1,0.1-0.3,0.2-0.4,0.3
	c-1.2,0.7-2.4,1.5-3.5,2.4c-0.8,0.7-1.6,1.4-2.4,2.1c-0.6,0.6-1.4,0.9-2.2,1h-0.3c-0.8-0.1-1.6-0.5-2.2-1c-0.8-0.6-1.7-1.3-2.4-2.1
	c-1.1-0.9-2.3-1.6-3.5-2.4l-0.5-0.3c-0.5-0.3-0.9-0.5-1.4-0.7s-0.9-0.5-1.4-0.7c-0.1-0.1-0.3-0.1-0.4-0.2c-3.7-1.5-7.7-2.3-11.7-2.3
	c-3.3,0-6.6,0.6-9.7,1.6l-0.7,0.3c-0.8,0.4-1.6,0.7-2.2,1c-2.9,1.4-5.6,3.2-8,5.3c-2.5,2.3-4.5,5-6.1,8c-2,3.6-3.1,7.5-3.4,11.5
	v41.7c-0.1,1.5,0.2,3,0.8,4.3c0.5,0.7,1,1.4,1.7,1.9c0.5,0.4,1.1,0.7,1.6,1c0.7,0.3,1.5,0.5,2.3,0.5h0.2c0.9,0,1.7-0.2,2.5-0.6
	c0.2-0.1,0.4-0.2,0.6-0.3c1.2-0.8,2.1-1.8,2.7-3.1c0.5-1.2,0.7-2.5,0.6-3.8v-41.8c0.3-2.5,1.3-4.9,2.7-6.9c0.2-0.3,0.5-0.7,0.8-1.1
	c1.9-2.4,4.5-4.3,7.3-5.4l0.3-0.1c0.4-0.1,0.9-0.3,1.4-0.4c0.2-0.1,0.4-0.1,0.6-0.2c0.4-0.1,0.7-0.1,1.1-0.2s0.6-0.1,0.9-0.2
	c0.3,0,0.8,0,1.2-0.1c0.3,0,0.5,0,0.8,0h0.1c0.6,0,1.3,0,1.9,0.1c0.2,0,0.4,0,0.5,0.1c0.4,0.1,0.8,0.1,1.3,0.2s1,0.3,1.6,0.4h0.1
	c3.4,1.2,6.3,3.3,8.5,6.2c1.6,2.2,2.7,4.7,3.1,7.4v42c0,1.4,0.2,2.9,0.8,4.2c0.5,0.8,1,1.5,1.7,2.1c0.4,0.3,0.9,0.6,1.4,0.8
	c0.8,0.3,1.6,0.5,2.4,0.6h0.4c0.8-0.1,1.6-0.3,2.4-0.6c0.5-0.2,1-0.5,1.4-0.8c0.7-0.6,1.3-1.3,1.7-2.1c0.6-1.3,0.9-2.8,0.8-4.2v-42
	c0.4-2.7,1.4-5.2,3.1-7.4c2.2-2.8,5.2-5,8.5-6.1c0.5-0.2,1.1-0.3,1.7-0.5c0.4-0.1,0.8-0.1,1.3-0.2c0.2,0,0.4-0.1,0.5-0.1
	c0.6-0.1,1.3-0.1,1.9-0.1h0.1c0.3,0,0.5,0,0.8,0c0.4,0,0.8,0,1.2,0.1l0.9,0.2c0.3,0.1,0.7,0.1,1.1,0.2c0.3,0.1,0.4,0.1,0.7,0.2
	c0.5,0.1,0.9,0.3,1.3,0.4l0.3,0.1c2.9,1.2,5.4,3,7.3,5.4l0.8,1.1c1.5,2,2.4,4.4,2.7,6.9v41.7c0,1.3,0.2,2.6,0.6,3.8
	c0.6,1.3,1.5,2.3,2.7,3.1c1,0.5,2,0.8,3.1,0.9h0.2c0.8,0,1.5-0.2,2.3-0.5c1.4-0.6,2.5-1.6,3.3-2.9c0.6-1.4,0.9-2.8,0.8-4.3v-41.7
	c-0.3-4-1.4-8-3.4-11.5c-1.6-3-3.7-5.7-6.1-8"/>
</svg>
